solid LickStick0_3
facet normal 0.0 0.0 -1.0
  outer loop
    vertex 17.699999999999996 25.999999999999996 2.4499999999999997
    vertex 10.199999999999998 25.5 2.4499999999999997
    vertex 10.199999999999998 25.999999999999996 2.4499999999999997
  endloop
endfacet
facet normal 0.0 0.0 -1.0
  outer loop
    vertex 10.199999999999998 25.5 2.4499999999999997
    vertex 17.699999999999996 25.999999999999996 2.4499999999999997
    vertex 17.699999999999996 25.5 2.4499999999999997
  endloop
endfacet
facet normal 0.0 0.0 -1.0
  outer loop
    vertex 70.59999999999998 6.6000000000000005 2.4500000000000006
    vertex 63.599999999999994 6.1000000000000005 2.4500000000000006
    vertex 63.599999999999994 6.599999999999999 2.4500000000000006
  endloop
endfacet
facet normal 0.0 0.0 -1.0
  outer loop
    vertex 63.599999999999994 6.1000000000000005 2.4500000000000006
    vertex 70.59999999999998 6.6000000000000005 2.4500000000000006
    vertex 70.59999999999998 6.1000000000000005 2.4500000000000006
  endloop
endfacet
facet normal 0.0 0.0 1.0
  outer loop
    vertex 17.699999999999992 4.9 3.6500000000000004
    vertex 8.999999999999998 6.6000000000000005 3.6500000000000004
    vertex 8.999999999999998 4.9 3.6500000000000004
  endloop
endfacet
facet normal 0.0 0.0 1.0
  outer loop
    vertex 8.999999999999998 6.6000000000000005 3.6500000000000004
    vertex 17.699999999999992 4.9 3.6500000000000004
    vertex 17.699999999999996 6.599999999999999 3.6500000000000004
  endloop
endfacet
facet normal 0.0 0.0 -1.0
  outer loop
    vertex 70.59999999999998 25.999999999999996 2.4499999999999997
    vertex 63.599999999999994 25.5 2.4499999999999997
    vertex 63.599999999999994 25.999999999999996 2.4499999999999997
  endloop
endfacet
facet normal 0.0 0.0 -1.0
  outer loop
    vertex 63.599999999999994 25.5 2.4499999999999997
    vertex 70.59999999999998 25.999999999999996 2.4499999999999997
    vertex 70.59999999999998 25.5 2.4499999999999997
  endloop
endfacet
facet normal -1.0 0.0 0.0
  outer loop
    vertex 63.599999999999994 27.19999999999999 3.6499999999999995
    vertex 63.599999999999994 25.5 2.4499999999999997
    vertex 63.599999999999994 25.5 3.6499999999999995
  endloop
endfacet
facet normal -1.0 0.0 0.0
  outer loop
    vertex 63.599999999999994 25.5 2.4499999999999997
    vertex 63.599999999999994 27.19999999999999 3.6499999999999995
    vertex 63.599999999999994 25.999999999999996 2.4499999999999997
  endloop
endfacet
facet normal -1.0 0.0 0.0
  outer loop
    vertex 63.599999999999994 25.999999999999996 2.4499999999999997
    vertex 63.599999999999994 27.19999999999999 3.6499999999999995
    vertex 63.599999999999994 25.999999999999996 2.1500000000000004
  endloop
endfacet
facet normal -1.0 0.0 0.0
  outer loop
    vertex 63.599999999999994 25.999999999999996 2.1500000000000004
    vertex 63.599999999999994 27.19999999999999 3.6499999999999995
    vertex 63.599999999999994 27.19999999999999 2.1500000000000017
  endloop
endfacet
facet normal -1.0 0.0 0.0
  outer loop
    vertex 63.599999999999994 6.599999999999999 3.6500000000000004
    vertex 63.599999999999994 4.8999999999999995 2.150000000000003
    vertex 63.599999999999994 4.8999999999999995 3.6500000000000004
  endloop
endfacet
facet normal -1.0 0.0 0.0
  outer loop
    vertex 63.599999999999994 4.8999999999999995 2.150000000000003
    vertex 63.599999999999994 6.599999999999999 3.6500000000000004
    vertex 63.599999999999994 6.1000000000000005 2.4500000000000006
  endloop
endfacet
facet normal -1.0 0.0 0.0
  outer loop
    vertex 63.599999999999994 6.1000000000000005 2.4500000000000006
    vertex 63.599999999999994 6.599999999999999 3.6500000000000004
    vertex 63.599999999999994 6.599999999999999 2.4500000000000006
  endloop
endfacet
facet normal -1.0 0.0 0.0
  outer loop
    vertex 63.599999999999994 6.1000000000000005 2.1500000000000026
    vertex 63.599999999999994 4.8999999999999995 2.150000000000003
    vertex 63.599999999999994 6.1000000000000005 2.4500000000000006
  endloop
endfacet
facet normal 1.6578036300779025e-16 1.0 5.3843194823042926e-17
  outer loop
    vertex 8.999999999999998 6.6000000000000005 3.6500000000000004
    vertex 10.199999999999998 6.6000000000000005 2.1500000000000017
    vertex 8.999999999999998 6.6000000000000005 2.1500000000000017
  endloop
endfacet
facet normal 1.6578036300779025e-16 1.0 5.3843194823042926e-17
  outer loop
    vertex 10.199999999999998 6.6000000000000005 2.1500000000000017
    vertex 8.999999999999998 6.6000000000000005 3.6500000000000004
    vertex 10.199999999999998 6.6000000000000005 2.4500000000000006
  endloop
endfacet
facet normal 1.6578036300779025e-16 1.0 5.3843194823042926e-17
  outer loop
    vertex 10.199999999999998 6.6000000000000005 2.4500000000000006
    vertex 8.999999999999998 6.6000000000000005 3.6500000000000004
    vertex 17.699999999999996 6.599999999999999 2.4500000000000006
  endloop
endfacet
facet normal 1.6578036300779025e-16 1.0 5.3843194823042926e-17
  outer loop
    vertex 17.699999999999996 6.599999999999999 2.4500000000000006
    vertex 8.999999999999998 6.6000000000000005 3.6500000000000004
    vertex 17.699999999999996 6.599999999999999 3.6500000000000004
  endloop
endfacet
facet normal -1.748564732371283e-18 1.0 -1.6535134202542714e-16
  outer loop
    vertex 10.199999999999998 6.1000000000000005 2.1500000000000017
    vertex 17.699999999999996 6.1000000000000005 2.150000000000003
    vertex 63.599999999999994 6.1000000000000005 2.1500000000000026
  endloop
endfacet
facet normal -1.748564732371283e-18 1.0 -1.6535134202542714e-16
  outer loop
    vertex 17.699999999999996 6.1000000000000005 2.150000000000003
    vertex 10.199999999999998 6.1000000000000005 2.1500000000000017
    vertex 10.199999999999998 6.1000000000000005 2.4500000000000006
  endloop
endfacet
facet normal -1.748564732371283e-18 1.0 -1.6535134202542714e-16
  outer loop
    vertex 17.699999999999996 6.1000000000000005 2.150000000000003
    vertex 10.199999999999998 6.1000000000000005 2.4500000000000006
    vertex 17.699999999999996 6.1000000000000005 2.4500000000000006
  endloop
endfacet
facet normal -1.748564732371283e-18 1.0 -1.6535134202542714e-16
  outer loop
    vertex 10.199999999999998 6.1000000000000005 2.1500000000000017
    vertex 70.59999999999998 6.1000000000000005 0.0
    vertex 10.199999999999998 6.1000000000000005 0.0
  endloop
endfacet
facet normal -1.748564732371283e-18 1.0 -1.6535134202542714e-16
  outer loop
    vertex 70.59999999999998 6.1000000000000005 0.0
    vertex 10.199999999999998 6.1000000000000005 2.1500000000000017
    vertex 63.599999999999994 6.1000000000000005 2.1500000000000026
  endloop
endfacet
facet normal -1.748564732371283e-18 1.0 -1.6535134202542714e-16
  outer loop
    vertex 70.59999999999998 6.1000000000000005 0.0
    vertex 63.599999999999994 6.1000000000000005 2.1500000000000026
    vertex 70.59999999999998 6.1000000000000005 2.4500000000000006
  endloop
endfacet
facet normal -1.748564732371283e-18 1.0 -1.6535134202542714e-16
  outer loop
    vertex 70.59999999999998 6.1000000000000005 2.4500000000000006
    vertex 63.599999999999994 6.1000000000000005 2.1500000000000026
    vertex 63.599999999999994 6.1000000000000005 2.4500000000000006
  endloop
endfacet
facet normal -5.3718690826420295e-18 -1.0 -3.7483156863351914e-17
  outer loop
    vertex 71.79999999999998 4.9 -1.2
    vertex 63.599999999999994 4.8999999999999995 2.150000000000003
    vertex 8.999999999999998 4.9 -1.2
  endloop
endfacet
facet normal -5.3718690826420295e-18 -1.0 -3.7483156863351914e-17
  outer loop
    vertex 63.599999999999994 4.8999999999999995 2.150000000000003
    vertex 71.79999999999998 4.9 -1.2
    vertex 71.79999999999998 4.9 3.6500000000000004
  endloop
endfacet
facet normal -5.3718690826420295e-18 -1.0 -3.7483156863351914e-17
  outer loop
    vertex 63.599999999999994 4.8999999999999995 2.150000000000003
    vertex 71.79999999999998 4.9 3.6500000000000004
    vertex 63.599999999999994 4.8999999999999995 3.6500000000000004
  endloop
endfacet
facet normal -5.3718690826420295e-18 -1.0 -3.7483156863351914e-17
  outer loop
    vertex 8.999999999999998 4.9 -1.2
    vertex 17.699999999999992 4.9 2.150000000000003
    vertex 8.999999999999998 4.9 3.6500000000000004
  endloop
endfacet
facet normal -5.3718690826420295e-18 -1.0 -3.7483156863351914e-17
  outer loop
    vertex 17.699999999999992 4.9 2.150000000000003
    vertex 8.999999999999998 4.9 -1.2
    vertex 63.599999999999994 4.8999999999999995 2.150000000000003
  endloop
endfacet
facet normal -5.3718690826420295e-18 -1.0 -3.7483156863351914e-17
  outer loop
    vertex 8.999999999999998 4.9 3.6500000000000004
    vertex 17.699999999999992 4.9 2.150000000000003
    vertex 17.699999999999992 4.9 3.6500000000000004
  endloop
endfacet
facet normal 0.0 1.0 0.0
  outer loop
    vertex 8.999999999999998 27.19999999999999 -1.2
    vertex 17.699999999999996 27.19999999999999 2.1500000000000017
    vertex 71.79999999999998 27.19999999999999 -1.2
  endloop
endfacet
facet normal 0.0 1.0 0.0
  outer loop
    vertex 17.699999999999996 27.19999999999999 2.1500000000000017
    vertex 8.999999999999998 27.19999999999999 -1.2
    vertex 8.999999999999998 27.19999999999999 3.6499999999999995
  endloop
endfacet
facet normal 0.0 1.0 0.0
  outer loop
    vertex 17.699999999999996 27.19999999999999 2.1500000000000017
    vertex 8.999999999999998 27.19999999999999 3.6499999999999995
    vertex 17.699999999999996 27.19999999999999 3.6499999999999995
  endloop
endfacet
facet normal 0.0 1.0 0.0
  outer loop
    vertex 71.79999999999998 27.19999999999999 -1.2
    vertex 63.599999999999994 27.19999999999999 2.1500000000000017
    vertex 71.79999999999998 27.19999999999999 3.6499999999999995
  endloop
endfacet
facet normal 0.0 1.0 0.0
  outer loop
    vertex 63.599999999999994 27.19999999999999 2.1500000000000017
    vertex 71.79999999999998 27.19999999999999 -1.2
    vertex 17.699999999999996 27.19999999999999 2.1500000000000017
  endloop
endfacet
facet normal 0.0 1.0 0.0
  outer loop
    vertex 71.79999999999998 27.19999999999999 3.6499999999999995
    vertex 63.599999999999994 27.19999999999999 2.1500000000000017
    vertex 63.599999999999994 27.19999999999999 3.6499999999999995
  endloop
endfacet
facet normal 0.0 0.0 1.0
  outer loop
    vertex 17.699999999999996 25.5 3.6499999999999995
    vertex 8.999999999999998 27.19999999999999 3.6499999999999995
    vertex 8.999999999999998 25.5 3.6499999999999995
  endloop
endfacet
facet normal 0.0 0.0 1.0
  outer loop
    vertex 8.999999999999998 27.19999999999999 3.6499999999999995
    vertex 17.699999999999996 25.5 3.6499999999999995
    vertex 17.699999999999996 27.19999999999999 3.6499999999999995
  endloop
endfacet
facet normal 0.0 0.0 -1.0
  outer loop
    vertex 71.79999999999998 27.19999999999999 -1.2
    vertex 8.999999999999998 4.9 -1.2
    vertex 8.999999999999998 27.19999999999999 -1.2
  endloop
endfacet
facet normal 0.0 0.0 -1.0
  outer loop
    vertex 8.999999999999998 4.9 -1.2
    vertex 71.79999999999998 27.19999999999999 -1.2
    vertex 71.79999999999998 4.9 -1.2
  endloop
endfacet
facet normal 0.0 -1.0 0.0
  outer loop
    vertex 70.59999999999998 25.999999999999996 0.0
    vertex 63.599999999999994 25.999999999999996 2.1500000000000004
    vertex 10.199999999999998 25.999999999999996 0.0
  endloop
endfacet
facet normal 0.0 -1.0 0.0
  outer loop
    vertex 63.599999999999994 25.999999999999996 2.1500000000000004
    vertex 70.59999999999998 25.999999999999996 0.0
    vertex 70.59999999999998 25.999999999999996 2.4499999999999997
  endloop
endfacet
facet normal 0.0 -1.0 0.0
  outer loop
    vertex 63.599999999999994 25.999999999999996 2.1500000000000004
    vertex 70.59999999999998 25.999999999999996 2.4499999999999997
    vertex 63.599999999999994 25.999999999999996 2.4499999999999997
  endloop
endfacet
facet normal 0.0 -1.0 0.0
  outer loop
    vertex 10.199999999999998 25.999999999999996 0.0
    vertex 17.699999999999996 25.999999999999996 2.1500000000000004
    vertex 10.199999999999998 25.999999999999996 2.1500000000000017
  endloop
endfacet
facet normal 0.0 -1.0 0.0
  outer loop
    vertex 17.699999999999996 25.999999999999996 2.1500000000000004
    vertex 10.199999999999998 25.999999999999996 0.0
    vertex 63.599999999999994 25.999999999999996 2.1500000000000004
  endloop
endfacet
facet normal 0.0 -1.0 0.0
  outer loop
    vertex 10.199999999999998 25.999999999999996 2.1500000000000017
    vertex 17.699999999999996 25.999999999999996 2.1500000000000004
    vertex 17.699999999999996 25.999999999999996 2.4499999999999997
  endloop
endfacet
facet normal 0.0 -1.0 0.0
  outer loop
    vertex 10.199999999999998 25.999999999999996 2.1500000000000017
    vertex 17.699999999999996 25.999999999999996 2.4499999999999997
    vertex 10.199999999999998 25.999999999999996 2.4499999999999997
  endloop
endfacet
facet normal 0.0 -1.0 0.0
  outer loop
    vertex 71.79999999999998 25.5 3.6499999999999995
    vertex 70.59999999999998 25.5 2.1500000000000004
    vertex 71.79999999999998 25.5 2.1500000000000004
  endloop
endfacet
facet normal 0.0 -1.0 0.0
  outer loop
    vertex 70.59999999999998 25.5 2.1500000000000004
    vertex 71.79999999999998 25.5 3.6499999999999995
    vertex 70.59999999999998 25.5 2.4499999999999997
  endloop
endfacet
facet normal 0.0 -1.0 0.0
  outer loop
    vertex 70.59999999999998 25.5 2.4499999999999997
    vertex 71.79999999999998 25.5 3.6499999999999995
    vertex 63.599999999999994 25.5 2.4499999999999997
  endloop
endfacet
facet normal 0.0 -1.0 0.0
  outer loop
    vertex 63.599999999999994 25.5 2.4499999999999997
    vertex 71.79999999999998 25.5 3.6499999999999995
    vertex 63.599999999999994 25.5 3.6499999999999995
  endloop
endfacet
facet normal 7.679647283627174e-18 2.9374650859873915e-16 1.0
  outer loop
    vertex 63.599999999999994 4.8999999999999995 2.150000000000003
    vertex 17.699999999999996 6.1000000000000005 2.150000000000003
    vertex 17.699999999999992 4.9 2.150000000000003
  endloop
endfacet
facet normal 7.679647283627174e-18 2.9374650859873915e-16 1.0
  outer loop
    vertex 17.699999999999996 6.1000000000000005 2.150000000000003
    vertex 63.599999999999994 4.8999999999999995 2.150000000000003
    vertex 63.599999999999994 6.1000000000000005 2.1500000000000026
  endloop
endfacet
facet normal 1.0 0.0 0.0
  outer loop
    vertex 71.79999999999998 4.9 -1.2
    vertex 71.79999999999998 6.6000000000000005 2.1500000000000004
    vertex 71.79999999999998 4.9 3.6500000000000004
  endloop
endfacet
facet normal 1.0 0.0 0.0
  outer loop
    vertex 71.79999999999998 6.6000000000000005 2.1500000000000004
    vertex 71.79999999999998 4.9 -1.2
    vertex 71.79999999999998 27.19999999999999 -1.2
  endloop
endfacet
facet normal 1.0 0.0 0.0
  outer loop
    vertex 71.79999999999998 6.6000000000000005 2.1500000000000004
    vertex 71.79999999999998 27.19999999999999 -1.2
    vertex 71.79999999999998 25.5 2.1500000000000004
  endloop
endfacet
facet normal 1.0 0.0 0.0
  outer loop
    vertex 71.79999999999998 25.5 2.1500000000000004
    vertex 71.79999999999998 27.19999999999999 -1.2
    vertex 71.79999999999998 25.5 3.6499999999999995
  endloop
endfacet
facet normal 1.0 0.0 0.0
  outer loop
    vertex 71.79999999999998 25.5 3.6499999999999995
    vertex 71.79999999999998 27.19999999999999 -1.2
    vertex 71.79999999999998 27.19999999999999 3.6499999999999995
  endloop
endfacet
facet normal 1.0 0.0 0.0
  outer loop
    vertex 71.79999999999998 6.6000000000000005 3.6500000000000004
    vertex 71.79999999999998 4.9 3.6500000000000004
    vertex 71.79999999999998 6.6000000000000005 2.1500000000000004
  endloop
endfacet
facet normal -1.0 0.0 0.0
  outer loop
    vertex 70.59999999999998 25.999999999999996 2.4499999999999997
    vertex 70.59999999999998 25.5 2.1500000000000004
    vertex 70.59999999999998 25.5 2.4499999999999997
  endloop
endfacet
facet normal -1.0 0.0 0.0
  outer loop
    vertex 70.59999999999998 6.6000000000000005 2.4500000000000006
    vertex 70.59999999999998 6.1000000000000005 0.0
    vertex 70.59999999999998 6.1000000000000005 2.4500000000000006
  endloop
endfacet
facet normal -1.0 0.0 0.0
  outer loop
    vertex 70.59999999999998 6.1000000000000005 0.0
    vertex 70.59999999999998 6.6000000000000005 2.4500000000000006
    vertex 70.59999999999998 6.6000000000000005 2.1500000000000004
  endloop
endfacet
facet normal -1.0 0.0 0.0
  outer loop
    vertex 70.59999999999998 6.1000000000000005 0.0
    vertex 70.59999999999998 6.6000000000000005 2.1500000000000004
    vertex 70.59999999999998 25.999999999999996 0.0
  endloop
endfacet
facet normal -1.0 0.0 0.0
  outer loop
    vertex 70.59999999999998 25.999999999999996 0.0
    vertex 70.59999999999998 6.6000000000000005 2.1500000000000004
    vertex 70.59999999999998 25.5 2.1500000000000004
  endloop
endfacet
facet normal -1.0 0.0 0.0
  outer loop
    vertex 70.59999999999998 25.999999999999996 0.0
    vertex 70.59999999999998 25.5 2.1500000000000004
    vertex 70.59999999999998 25.999999999999996 2.4499999999999997
  endloop
endfacet
facet normal 0.0 0.0 -1.0
  outer loop
    vertex 17.699999999999996 6.599999999999999 2.4500000000000006
    vertex 10.199999999999998 6.1000000000000005 2.4500000000000006
    vertex 10.199999999999998 6.6000000000000005 2.4500000000000006
  endloop
endfacet
facet normal 0.0 0.0 -1.0
  outer loop
    vertex 10.199999999999998 6.1000000000000005 2.4500000000000006
    vertex 17.699999999999996 6.599999999999999 2.4500000000000006
    vertex 17.699999999999996 6.1000000000000005 2.4500000000000006
  endloop
endfacet
facet normal 0.0 -1.0 0.0
  outer loop
    vertex 17.699999999999996 25.5 3.6499999999999995
    vertex 10.199999999999998 25.5 2.4499999999999997
    vertex 17.699999999999996 25.5 2.4499999999999997
  endloop
endfacet
facet normal 0.0 -1.0 0.0
  outer loop
    vertex 10.199999999999998 25.5 2.4499999999999997
    vertex 8.999999999999998 25.5 2.1500000000000017
    vertex 10.199999999999998 25.5 2.1500000000000017
  endloop
endfacet
facet normal 0.0 -1.0 0.0
  outer loop
    vertex 8.999999999999998 25.5 2.1500000000000017
    vertex 10.199999999999998 25.5 2.4499999999999997
    vertex 8.999999999999998 25.5 3.6499999999999995
  endloop
endfacet
facet normal 0.0 -1.0 0.0
  outer loop
    vertex 8.999999999999998 25.5 3.6499999999999995
    vertex 10.199999999999998 25.5 2.4499999999999997
    vertex 17.699999999999996 25.5 3.6499999999999995
  endloop
endfacet
facet normal -1.7740065451991358e-47 -1.1749860343949649e-15 1.0
  outer loop
    vertex 63.599999999999994 25.999999999999996 2.1500000000000004
    vertex 17.699999999999996 27.19999999999999 2.1500000000000017
    vertex 17.699999999999996 25.999999999999996 2.1500000000000004
  endloop
endfacet
facet normal -1.7740065451991358e-47 -1.1749860343949649e-15 1.0
  outer loop
    vertex 17.699999999999996 27.19999999999999 2.1500000000000017
    vertex 63.599999999999994 25.999999999999996 2.1500000000000004
    vertex 63.599999999999994 27.19999999999999 2.1500000000000017
  endloop
endfacet
facet normal 0.0 0.0 1.0
  outer loop
    vertex 71.79999999999998 25.5 3.6499999999999995
    vertex 63.599999999999994 27.19999999999999 3.6499999999999995
    vertex 63.599999999999994 25.5 3.6499999999999995
  endloop
endfacet
facet normal 0.0 0.0 1.0
  outer loop
    vertex 63.599999999999994 27.19999999999999 3.6499999999999995
    vertex 71.79999999999998 25.5 3.6499999999999995
    vertex 71.79999999999998 27.19999999999999 3.6499999999999995
  endloop
endfacet
facet normal 1.0 0.0 0.0
  outer loop
    vertex 17.699999999999996 27.19999999999999 2.1500000000000017
    vertex 17.699999999999996 25.999999999999996 2.4499999999999997
    vertex 17.699999999999996 25.999999999999996 2.1500000000000004
  endloop
endfacet
facet normal 1.0 0.0 0.0
  outer loop
    vertex 17.699999999999996 25.999999999999996 2.4499999999999997
    vertex 17.699999999999996 25.5 3.6499999999999995
    vertex 17.699999999999996 25.5 2.4499999999999997
  endloop
endfacet
facet normal 1.0 0.0 0.0
  outer loop
    vertex 17.699999999999996 25.5 3.6499999999999995
    vertex 17.699999999999996 25.999999999999996 2.4499999999999997
    vertex 17.699999999999996 27.19999999999999 3.6499999999999995
  endloop
endfacet
facet normal 1.0 0.0 0.0
  outer loop
    vertex 17.699999999999996 27.19999999999999 3.6499999999999995
    vertex 17.699999999999996 25.999999999999996 2.4499999999999997
    vertex 17.699999999999996 27.19999999999999 2.1500000000000017
  endloop
endfacet
facet normal 1.0 -1.8350379501307714e-15 9.36243852107535e-17
  outer loop
    vertex 17.699999999999996 6.1000000000000005 2.150000000000003
    vertex 17.699999999999992 4.9 3.6500000000000004
    vertex 17.699999999999992 4.9 2.150000000000003
  endloop
endfacet
facet normal 1.0 -1.8350379501307714e-15 9.36243852107535e-17
  outer loop
    vertex 17.699999999999992 4.9 3.6500000000000004
    vertex 17.699999999999996 6.1000000000000005 2.150000000000003
    vertex 17.699999999999996 6.1000000000000005 2.4500000000000006
  endloop
endfacet
facet normal 1.0 -1.8350379501307714e-15 9.36243852107535e-17
  outer loop
    vertex 17.699999999999992 4.9 3.6500000000000004
    vertex 17.699999999999996 6.1000000000000005 2.4500000000000006
    vertex 17.699999999999996 6.599999999999999 3.6500000000000004
  endloop
endfacet
facet normal 1.0 -1.8350379501307714e-15 9.36243852107535e-17
  outer loop
    vertex 17.699999999999996 6.599999999999999 3.6500000000000004
    vertex 17.699999999999996 6.1000000000000005 2.4500000000000006
    vertex 17.699999999999996 6.599999999999999 2.4500000000000006
  endloop
endfacet
facet normal 0.0 0.0 1.0
  outer loop
    vertex 71.79999999999998 4.9 3.6500000000000004
    vertex 63.599999999999994 6.599999999999999 3.6500000000000004
    vertex 63.599999999999994 4.8999999999999995 3.6500000000000004
  endloop
endfacet
facet normal 0.0 0.0 1.0
  outer loop
    vertex 63.599999999999994 6.599999999999999 3.6500000000000004
    vertex 71.79999999999998 4.9 3.6500000000000004
    vertex 71.79999999999998 6.6000000000000005 3.6500000000000004
  endloop
endfacet
facet normal 0.0 0.0 1.0
  outer loop
    vertex 71.79999999999998 6.6000000000000005 2.1500000000000004
    vertex 70.59999999999998 25.5 2.1500000000000004
    vertex 70.59999999999998 6.6000000000000005 2.1500000000000004
  endloop
endfacet
facet normal 0.0 0.0 1.0
  outer loop
    vertex 70.59999999999998 25.5 2.1500000000000004
    vertex 71.79999999999998 6.6000000000000005 2.1500000000000004
    vertex 71.79999999999998 25.5 2.1500000000000004
  endloop
endfacet
facet normal -1.7904079357135887e-16 1.0 6.288622914696477e-17
  outer loop
    vertex 63.599999999999994 6.599999999999999 3.6500000000000004
    vertex 70.59999999999998 6.6000000000000005 2.4500000000000006
    vertex 63.599999999999994 6.599999999999999 2.4500000000000006
  endloop
endfacet
facet normal -1.7904079357135887e-16 1.0 6.288622914696477e-17
  outer loop
    vertex 70.59999999999998 6.6000000000000005 2.4500000000000006
    vertex 71.79999999999998 6.6000000000000005 2.1500000000000004
    vertex 70.59999999999998 6.6000000000000005 2.1500000000000004
  endloop
endfacet
facet normal -1.7904079357135887e-16 1.0 6.288622914696477e-17
  outer loop
    vertex 71.79999999999998 6.6000000000000005 2.1500000000000004
    vertex 70.59999999999998 6.6000000000000005 2.4500000000000006
    vertex 71.79999999999998 6.6000000000000005 3.6500000000000004
  endloop
endfacet
facet normal -1.7904079357135887e-16 1.0 6.288622914696477e-17
  outer loop
    vertex 71.79999999999998 6.6000000000000005 3.6500000000000004
    vertex 70.59999999999998 6.6000000000000005 2.4500000000000006
    vertex 63.599999999999994 6.599999999999999 3.6500000000000004
  endloop
endfacet
facet normal -1.0 5.0632561299203526e-17 1.4540483434871774e-16
  outer loop
    vertex 8.999999999999998 27.19999999999999 3.6499999999999995
    vertex 8.999999999999998 25.5 2.1500000000000017
    vertex 8.999999999999998 25.5 3.6499999999999995
  endloop
endfacet
facet normal -1.0 5.0632561299203526e-17 1.4540483434871774e-16
  outer loop
    vertex 8.999999999999998 6.6000000000000005 3.6500000000000004
    vertex 8.999999999999998 4.9 -1.2
    vertex 8.999999999999998 4.9 3.6500000000000004
  endloop
endfacet
facet normal -1.0 5.0632561299203526e-17 1.4540483434871774e-16
  outer loop
    vertex 8.999999999999998 4.9 -1.2
    vertex 8.999999999999998 6.6000000000000005 3.6500000000000004
    vertex 8.999999999999998 6.6000000000000005 2.1500000000000017
  endloop
endfacet
facet normal -1.0 5.0632561299203526e-17 1.4540483434871774e-16
  outer loop
    vertex 8.999999999999998 4.9 -1.2
    vertex 8.999999999999998 6.6000000000000005 2.1500000000000017
    vertex 8.999999999999998 27.19999999999999 -1.2
  endloop
endfacet
facet normal -1.0 5.0632561299203526e-17 1.4540483434871774e-16
  outer loop
    vertex 8.999999999999998 27.19999999999999 -1.2
    vertex 8.999999999999998 6.6000000000000005 2.1500000000000017
    vertex 8.999999999999998 25.5 2.1500000000000017
  endloop
endfacet
facet normal -1.0 5.0632561299203526e-17 1.4540483434871774e-16
  outer loop
    vertex 8.999999999999998 27.19999999999999 -1.2
    vertex 8.999999999999998 25.5 2.1500000000000017
    vertex 8.999999999999998 27.19999999999999 3.6499999999999995
  endloop
endfacet
facet normal 0.0 0.0 1.0
  outer loop
    vertex 70.59999999999998 6.1000000000000005 0.0
    vertex 10.199999999999998 25.999999999999996 0.0
    vertex 10.199999999999998 6.1000000000000005 0.0
  endloop
endfacet
facet normal 0.0 0.0 1.0
  outer loop
    vertex 10.199999999999998 25.999999999999996 0.0
    vertex 70.59999999999998 6.1000000000000005 0.0
    vertex 70.59999999999998 25.999999999999996 0.0
  endloop
endfacet
facet normal 0.0 0.0 1.0
  outer loop
    vertex 10.199999999999998 6.6000000000000005 2.1500000000000017
    vertex 8.999999999999998 25.5 2.1500000000000017
    vertex 8.999999999999998 6.6000000000000005 2.1500000000000017
  endloop
endfacet
facet normal 0.0 0.0 1.0
  outer loop
    vertex 8.999999999999998 25.5 2.1500000000000017
    vertex 10.199999999999998 6.6000000000000005 2.1500000000000017
    vertex 10.199999999999998 25.5 2.1500000000000017
  endloop
endfacet
facet normal 1.0 0.0 0.0
  outer loop
    vertex 10.199999999999998 25.999999999999996 0.0
    vertex 10.199999999999998 6.1000000000000005 2.1500000000000017
    vertex 10.199999999999998 6.1000000000000005 0.0
  endloop
endfacet
facet normal 1.0 0.0 0.0
  outer loop
    vertex 10.199999999999998 6.1000000000000005 2.1500000000000017
    vertex 10.199999999999998 25.999999999999996 0.0
    vertex 10.199999999999998 6.6000000000000005 2.1500000000000017
  endloop
endfacet
facet normal 1.0 0.0 0.0
  outer loop
    vertex 10.199999999999998 6.6000000000000005 2.1500000000000017
    vertex 10.199999999999998 25.999999999999996 0.0
    vertex 10.199999999999998 25.5 2.1500000000000017
  endloop
endfacet
facet normal 1.0 0.0 0.0
  outer loop
    vertex 10.199999999999998 25.5 2.1500000000000017
    vertex 10.199999999999998 25.999999999999996 0.0
    vertex 10.199999999999998 25.999999999999996 2.1500000000000017
  endloop
endfacet
facet normal 1.0 0.0 0.0
  outer loop
    vertex 10.199999999999998 25.999999999999996 2.1500000000000017
    vertex 10.199999999999998 25.5 2.4499999999999997
    vertex 10.199999999999998 25.5 2.1500000000000017
  endloop
endfacet
facet normal 1.0 0.0 0.0
  outer loop
    vertex 10.199999999999998 25.5 2.4499999999999997
    vertex 10.199999999999998 25.999999999999996 2.1500000000000017
    vertex 10.199999999999998 25.999999999999996 2.4499999999999997
  endloop
endfacet
facet normal 1.0 0.0 0.0
  outer loop
    vertex 10.199999999999998 6.6000000000000005 2.1500000000000017
    vertex 10.199999999999998 6.1000000000000005 2.4500000000000006
    vertex 10.199999999999998 6.1000000000000005 2.1500000000000017
  endloop
endfacet
facet normal 1.0 0.0 0.0
  outer loop
    vertex 10.199999999999998 6.1000000000000005 2.4500000000000006
    vertex 10.199999999999998 6.6000000000000005 2.1500000000000017
    vertex 10.199999999999998 6.6000000000000005 2.4500000000000006
  endloop
endfacet
endsolid LickStick0_3
