solid LickSense0_2
facet normal 0.0 0.0 -1.0
  outer loop
    vertex 17.699999999999996 25.999999999999996 2.4499999999999997
    vertex 10.199999999999998 25.5 2.4499999999999997
    vertex 10.199999999999998 25.999999999999996 2.4499999999999997
  endloop
endfacet
facet normal 0.0 0.0 -1.0
  outer loop
    vertex 10.199999999999998 25.5 2.4499999999999997
    vertex 17.699999999999996 25.999999999999996 2.4499999999999997
    vertex 17.699999999999996 25.5 2.4499999999999997
  endloop
endfacet
facet normal 0.0 0.0 -1.0
  outer loop
    vertex 67.6 6.6000000000000005 2.4500000000000006
    vertex 60.59999999999999 6.1000000000000005 2.4500000000000006
    vertex 60.59999999999999 6.599999999999999 2.4500000000000006
  endloop
endfacet
facet normal 0.0 0.0 -1.0
  outer loop
    vertex 60.59999999999999 6.1000000000000005 2.4500000000000006
    vertex 67.6 6.6000000000000005 2.4500000000000006
    vertex 67.6 6.1000000000000005 2.4500000000000006
  endloop
endfacet
facet normal 0.0 0.0 1.0
  outer loop
    vertex 17.699999999999992 4.9 3.6500000000000004
    vertex 8.999999999999998 6.6000000000000005 3.6500000000000004
    vertex 8.999999999999998 4.9 3.6500000000000004
  endloop
endfacet
facet normal 0.0 0.0 1.0
  outer loop
    vertex 8.999999999999998 6.6000000000000005 3.6500000000000004
    vertex 17.699999999999992 4.9 3.6500000000000004
    vertex 17.699999999999996 6.599999999999999 3.6500000000000004
  endloop
endfacet
facet normal 0.0 0.0 -1.0
  outer loop
    vertex 67.6 25.999999999999996 2.4499999999999997
    vertex 60.59999999999999 25.5 2.4499999999999997
    vertex 60.59999999999999 25.999999999999996 2.4499999999999997
  endloop
endfacet
facet normal 0.0 0.0 -1.0
  outer loop
    vertex 60.59999999999999 25.5 2.4499999999999997
    vertex 67.6 25.999999999999996 2.4499999999999997
    vertex 67.6 25.5 2.4499999999999997
  endloop
endfacet
facet normal -1.0 0.0 0.0
  outer loop
    vertex 60.59999999999999 27.19999999999999 3.6499999999999995
    vertex 60.59999999999999 25.5 2.4499999999999997
    vertex 60.59999999999999 25.5 3.6499999999999995
  endloop
endfacet
facet normal -1.0 0.0 0.0
  outer loop
    vertex 60.59999999999999 25.5 2.4499999999999997
    vertex 60.59999999999999 27.19999999999999 3.6499999999999995
    vertex 60.59999999999999 25.999999999999996 2.4499999999999997
  endloop
endfacet
facet normal -1.0 0.0 0.0
  outer loop
    vertex 60.59999999999999 25.999999999999996 2.4499999999999997
    vertex 60.59999999999999 27.19999999999999 3.6499999999999995
    vertex 60.59999999999999 25.999999999999996 2.1500000000000004
  endloop
endfacet
facet normal -1.0 0.0 0.0
  outer loop
    vertex 60.59999999999999 25.999999999999996 2.1500000000000004
    vertex 60.59999999999999 27.19999999999999 3.6499999999999995
    vertex 60.59999999999999 27.19999999999999 2.1500000000000017
  endloop
endfacet
facet normal -1.0 0.0 0.0
  outer loop
    vertex 60.59999999999999 6.599999999999999 3.6500000000000004
    vertex 60.59999999999999 4.8999999999999995 2.150000000000003
    vertex 60.59999999999999 4.8999999999999995 3.6500000000000004
  endloop
endfacet
facet normal -1.0 0.0 0.0
  outer loop
    vertex 60.59999999999999 4.8999999999999995 2.150000000000003
    vertex 60.59999999999999 6.599999999999999 3.6500000000000004
    vertex 60.59999999999999 6.1000000000000005 2.4500000000000006
  endloop
endfacet
facet normal -1.0 0.0 0.0
  outer loop
    vertex 60.59999999999999 6.1000000000000005 2.4500000000000006
    vertex 60.59999999999999 6.599999999999999 3.6500000000000004
    vertex 60.59999999999999 6.599999999999999 2.4500000000000006
  endloop
endfacet
facet normal -1.0 0.0 0.0
  outer loop
    vertex 60.59999999999999 6.1000000000000005 2.1500000000000026
    vertex 60.59999999999999 4.8999999999999995 2.150000000000003
    vertex 60.59999999999999 6.1000000000000005 2.4500000000000006
  endloop
endfacet
facet normal 1.6578036300779025e-16 1.0 5.3843194823042926e-17
  outer loop
    vertex 8.999999999999998 6.6000000000000005 3.6500000000000004
    vertex 10.199999999999998 6.6000000000000005 2.1500000000000017
    vertex 8.999999999999998 6.6000000000000005 2.1500000000000017
  endloop
endfacet
facet normal 1.6578036300779025e-16 1.0 5.3843194823042926e-17
  outer loop
    vertex 10.199999999999998 6.6000000000000005 2.1500000000000017
    vertex 8.999999999999998 6.6000000000000005 3.6500000000000004
    vertex 10.199999999999998 6.6000000000000005 2.4500000000000006
  endloop
endfacet
facet normal 1.6578036300779025e-16 1.0 5.3843194823042926e-17
  outer loop
    vertex 10.199999999999998 6.6000000000000005 2.4500000000000006
    vertex 8.999999999999998 6.6000000000000005 3.6500000000000004
    vertex 17.699999999999996 6.599999999999999 2.4500000000000006
  endloop
endfacet
facet normal 1.6578036300779025e-16 1.0 5.3843194823042926e-17
  outer loop
    vertex 17.699999999999996 6.599999999999999 2.4500000000000006
    vertex 8.999999999999998 6.6000000000000005 3.6500000000000004
    vertex 17.699999999999996 6.599999999999999 3.6500000000000004
  endloop
endfacet
facet normal -3.06702598118852e-18 1.0 -1.5660971853461215e-16
  outer loop
    vertex 10.199999999999998 6.1000000000000005 2.1500000000000017
    vertex 17.699999999999996 6.1000000000000005 2.150000000000003
    vertex 60.59999999999999 6.1000000000000005 2.1500000000000026
  endloop
endfacet
facet normal -3.06702598118852e-18 1.0 -1.5660971853461215e-16
  outer loop
    vertex 17.699999999999996 6.1000000000000005 2.150000000000003
    vertex 10.199999999999998 6.1000000000000005 2.1500000000000017
    vertex 10.199999999999998 6.1000000000000005 2.4500000000000006
  endloop
endfacet
facet normal -3.06702598118852e-18 1.0 -1.5660971853461215e-16
  outer loop
    vertex 17.699999999999996 6.1000000000000005 2.150000000000003
    vertex 10.199999999999998 6.1000000000000005 2.4500000000000006
    vertex 17.699999999999996 6.1000000000000005 2.4500000000000006
  endloop
endfacet
facet normal -3.06702598118852e-18 1.0 -1.5660971853461215e-16
  outer loop
    vertex 10.199999999999998 6.1000000000000005 2.1500000000000017
    vertex 67.6 6.1000000000000005 0.0
    vertex 10.199999999999998 6.1000000000000005 0.0
  endloop
endfacet
facet normal -3.06702598118852e-18 1.0 -1.5660971853461215e-16
  outer loop
    vertex 67.6 6.1000000000000005 0.0
    vertex 10.199999999999998 6.1000000000000005 2.1500000000000017
    vertex 60.59999999999999 6.1000000000000005 2.1500000000000026
  endloop
endfacet
facet normal -3.06702598118852e-18 1.0 -1.5660971853461215e-16
  outer loop
    vertex 67.6 6.1000000000000005 0.0
    vertex 60.59999999999999 6.1000000000000005 2.1500000000000026
    vertex 67.6 6.1000000000000005 2.4500000000000006
  endloop
endfacet
facet normal -3.06702598118852e-18 1.0 -1.5660971853461215e-16
  outer loop
    vertex 67.6 6.1000000000000005 2.4500000000000006
    vertex 60.59999999999999 6.1000000000000005 2.1500000000000026
    vertex 60.59999999999999 6.1000000000000005 2.4500000000000006
  endloop
endfacet
facet normal -5.657905900082301e-18 -1.0 -3.745161750358046e-17
  outer loop
    vertex 68.79999999999998 4.9 -1.2
    vertex 60.59999999999999 4.8999999999999995 2.150000000000003
    vertex 8.999999999999998 4.9 -1.2
  endloop
endfacet
facet normal -5.657905900082301e-18 -1.0 -3.745161750358046e-17
  outer loop
    vertex 60.59999999999999 4.8999999999999995 2.150000000000003
    vertex 68.79999999999998 4.9 -1.2
    vertex 68.79999999999998 4.9 3.6500000000000004
  endloop
endfacet
facet normal -5.657905900082301e-18 -1.0 -3.745161750358046e-17
  outer loop
    vertex 60.59999999999999 4.8999999999999995 2.150000000000003
    vertex 68.79999999999998 4.9 3.6500000000000004
    vertex 60.59999999999999 4.8999999999999995 3.6500000000000004
  endloop
endfacet
facet normal -5.657905900082301e-18 -1.0 -3.745161750358046e-17
  outer loop
    vertex 8.999999999999998 4.9 -1.2
    vertex 17.699999999999992 4.9 2.150000000000003
    vertex 8.999999999999998 4.9 3.6500000000000004
  endloop
endfacet
facet normal -5.657905900082301e-18 -1.0 -3.745161750358046e-17
  outer loop
    vertex 17.699999999999992 4.9 2.150000000000003
    vertex 8.999999999999998 4.9 -1.2
    vertex 60.59999999999999 4.8999999999999995 2.150000000000003
  endloop
endfacet
facet normal -5.657905900082301e-18 -1.0 -3.745161750358046e-17
  outer loop
    vertex 8.999999999999998 4.9 3.6500000000000004
    vertex 17.699999999999992 4.9 2.150000000000003
    vertex 17.699999999999992 4.9 3.6500000000000004
  endloop
endfacet
facet normal 0.0 1.0 0.0
  outer loop
    vertex 8.999999999999998 27.19999999999999 -1.2
    vertex 17.699999999999996 27.19999999999999 2.1500000000000017
    vertex 68.79999999999998 27.19999999999999 -1.2
  endloop
endfacet
facet normal 0.0 1.0 0.0
  outer loop
    vertex 17.699999999999996 27.19999999999999 2.1500000000000017
    vertex 8.999999999999998 27.19999999999999 -1.2
    vertex 8.999999999999998 27.19999999999999 3.6499999999999995
  endloop
endfacet
facet normal 0.0 1.0 0.0
  outer loop
    vertex 17.699999999999996 27.19999999999999 2.1500000000000017
    vertex 8.999999999999998 27.19999999999999 3.6499999999999995
    vertex 17.699999999999996 27.19999999999999 3.6499999999999995
  endloop
endfacet
facet normal 0.0 1.0 0.0
  outer loop
    vertex 68.79999999999998 27.19999999999999 -1.2
    vertex 60.59999999999999 27.19999999999999 2.1500000000000017
    vertex 68.79999999999998 27.19999999999999 3.6499999999999995
  endloop
endfacet
facet normal 0.0 1.0 0.0
  outer loop
    vertex 60.59999999999999 27.19999999999999 2.1500000000000017
    vertex 68.79999999999998 27.19999999999999 -1.2
    vertex 17.699999999999996 27.19999999999999 2.1500000000000017
  endloop
endfacet
facet normal 0.0 1.0 0.0
  outer loop
    vertex 68.79999999999998 27.19999999999999 3.6499999999999995
    vertex 60.59999999999999 27.19999999999999 2.1500000000000017
    vertex 60.59999999999999 27.19999999999999 3.6499999999999995
  endloop
endfacet
facet normal 0.0 0.0 1.0
  outer loop
    vertex 17.699999999999996 25.5 3.6499999999999995
    vertex 8.999999999999998 27.19999999999999 3.6499999999999995
    vertex 8.999999999999998 25.5 3.6499999999999995
  endloop
endfacet
facet normal 0.0 0.0 1.0
  outer loop
    vertex 8.999999999999998 27.19999999999999 3.6499999999999995
    vertex 17.699999999999996 25.5 3.6499999999999995
    vertex 17.699999999999996 27.19999999999999 3.6499999999999995
  endloop
endfacet
facet normal 0.0 0.0 -1.0
  outer loop
    vertex 68.79999999999998 27.19999999999999 -1.2
    vertex 8.999999999999998 4.9 -1.2
    vertex 8.999999999999998 27.19999999999999 -1.2
  endloop
endfacet
facet normal 0.0 0.0 -1.0
  outer loop
    vertex 8.999999999999998 4.9 -1.2
    vertex 68.79999999999998 27.19999999999999 -1.2
    vertex 68.79999999999998 4.9 -1.2
  endloop
endfacet
facet normal 0.0 -1.0 0.0
  outer loop
    vertex 67.6 25.999999999999996 0.0
    vertex 60.59999999999999 25.999999999999996 2.1500000000000004
    vertex 10.199999999999998 25.999999999999996 0.0
  endloop
endfacet
facet normal 0.0 -1.0 0.0
  outer loop
    vertex 60.59999999999999 25.999999999999996 2.1500000000000004
    vertex 67.6 25.999999999999996 0.0
    vertex 67.6 25.999999999999996 2.4499999999999997
  endloop
endfacet
facet normal 0.0 -1.0 0.0
  outer loop
    vertex 60.59999999999999 25.999999999999996 2.1500000000000004
    vertex 67.6 25.999999999999996 2.4499999999999997
    vertex 60.59999999999999 25.999999999999996 2.4499999999999997
  endloop
endfacet
facet normal 0.0 -1.0 0.0
  outer loop
    vertex 10.199999999999998 25.999999999999996 0.0
    vertex 17.699999999999996 25.999999999999996 2.1500000000000004
    vertex 10.199999999999998 25.999999999999996 2.1500000000000017
  endloop
endfacet
facet normal 0.0 -1.0 0.0
  outer loop
    vertex 17.699999999999996 25.999999999999996 2.1500000000000004
    vertex 10.199999999999998 25.999999999999996 0.0
    vertex 60.59999999999999 25.999999999999996 2.1500000000000004
  endloop
endfacet
facet normal 0.0 -1.0 0.0
  outer loop
    vertex 10.199999999999998 25.999999999999996 2.1500000000000017
    vertex 17.699999999999996 25.999999999999996 2.1500000000000004
    vertex 17.699999999999996 25.999999999999996 2.4499999999999997
  endloop
endfacet
facet normal 0.0 -1.0 0.0
  outer loop
    vertex 10.199999999999998 25.999999999999996 2.1500000000000017
    vertex 17.699999999999996 25.999999999999996 2.4499999999999997
    vertex 10.199999999999998 25.999999999999996 2.4499999999999997
  endloop
endfacet
facet normal 0.0 -1.0 0.0
  outer loop
    vertex 68.79999999999998 25.5 3.6499999999999995
    vertex 67.6 25.5 2.1500000000000004
    vertex 68.79999999999998 25.5 2.1500000000000004
  endloop
endfacet
facet normal 0.0 -1.0 0.0
  outer loop
    vertex 67.6 25.5 2.1500000000000004
    vertex 68.79999999999998 25.5 3.6499999999999995
    vertex 67.6 25.5 2.4499999999999997
  endloop
endfacet
facet normal 0.0 -1.0 0.0
  outer loop
    vertex 67.6 25.5 2.4499999999999997
    vertex 68.79999999999998 25.5 3.6499999999999995
    vertex 60.59999999999999 25.5 2.4499999999999997
  endloop
endfacet
facet normal 0.0 -1.0 0.0
  outer loop
    vertex 60.59999999999999 25.5 2.4499999999999997
    vertex 68.79999999999998 25.5 3.6499999999999995
    vertex 60.59999999999999 25.5 3.6499999999999995
  endloop
endfacet
facet normal 4.108342777604746e-18 1.4687325429936955e-16 1.0
  outer loop
    vertex 60.59999999999999 4.8999999999999995 2.150000000000003
    vertex 17.699999999999996 6.1000000000000005 2.150000000000003
    vertex 17.699999999999992 4.9 2.150000000000003
  endloop
endfacet
facet normal 4.108342777604746e-18 1.4687325429936955e-16 1.0
  outer loop
    vertex 17.699999999999996 6.1000000000000005 2.150000000000003
    vertex 60.59999999999999 4.8999999999999995 2.150000000000003
    vertex 60.59999999999999 6.1000000000000005 2.1500000000000026
  endloop
endfacet
facet normal 1.0 0.0 0.0
  outer loop
    vertex 68.79999999999998 4.9 -1.2
    vertex 68.79999999999998 6.6000000000000005 2.1500000000000004
    vertex 68.79999999999998 4.9 3.6500000000000004
  endloop
endfacet
facet normal 1.0 0.0 0.0
  outer loop
    vertex 68.79999999999998 6.6000000000000005 2.1500000000000004
    vertex 68.79999999999998 4.9 -1.2
    vertex 68.79999999999998 27.19999999999999 -1.2
  endloop
endfacet
facet normal 1.0 0.0 0.0
  outer loop
    vertex 68.79999999999998 6.6000000000000005 2.1500000000000004
    vertex 68.79999999999998 27.19999999999999 -1.2
    vertex 68.79999999999998 25.5 2.1500000000000004
  endloop
endfacet
facet normal 1.0 0.0 0.0
  outer loop
    vertex 68.79999999999998 25.5 2.1500000000000004
    vertex 68.79999999999998 27.19999999999999 -1.2
    vertex 68.79999999999998 25.5 3.6499999999999995
  endloop
endfacet
facet normal 1.0 0.0 0.0
  outer loop
    vertex 68.79999999999998 25.5 3.6499999999999995
    vertex 68.79999999999998 27.19999999999999 -1.2
    vertex 68.79999999999998 27.19999999999999 3.6499999999999995
  endloop
endfacet
facet normal 1.0 0.0 0.0
  outer loop
    vertex 68.79999999999998 6.6000000000000005 3.6500000000000004
    vertex 68.79999999999998 4.9 3.6500000000000004
    vertex 68.79999999999998 6.6000000000000005 2.1500000000000004
  endloop
endfacet
facet normal -1.0 0.0 0.0
  outer loop
    vertex 67.6 25.999999999999996 2.4499999999999997
    vertex 67.6 25.5 2.1500000000000004
    vertex 67.6 25.5 2.4499999999999997
  endloop
endfacet
facet normal -1.0 0.0 0.0
  outer loop
    vertex 67.6 6.6000000000000005 2.4500000000000006
    vertex 67.6 6.1000000000000005 0.0
    vertex 67.6 6.1000000000000005 2.4500000000000006
  endloop
endfacet
facet normal -1.0 0.0 0.0
  outer loop
    vertex 67.6 6.1000000000000005 0.0
    vertex 67.6 6.6000000000000005 2.4500000000000006
    vertex 67.6 6.6000000000000005 2.1500000000000004
  endloop
endfacet
facet normal -1.0 0.0 0.0
  outer loop
    vertex 67.6 6.1000000000000005 0.0
    vertex 67.6 6.6000000000000005 2.1500000000000004
    vertex 67.6 25.999999999999996 0.0
  endloop
endfacet
facet normal -1.0 0.0 0.0
  outer loop
    vertex 67.6 25.999999999999996 0.0
    vertex 67.6 6.6000000000000005 2.1500000000000004
    vertex 67.6 25.5 2.1500000000000004
  endloop
endfacet
facet normal -1.0 0.0 0.0
  outer loop
    vertex 67.6 25.999999999999996 0.0
    vertex 67.6 25.5 2.1500000000000004
    vertex 67.6 25.999999999999996 2.4499999999999997
  endloop
endfacet
facet normal 0.0 0.0 -1.0
  outer loop
    vertex 17.699999999999996 6.599999999999999 2.4500000000000006
    vertex 10.199999999999998 6.1000000000000005 2.4500000000000006
    vertex 10.199999999999998 6.6000000000000005 2.4500000000000006
  endloop
endfacet
facet normal 0.0 0.0 -1.0
  outer loop
    vertex 10.199999999999998 6.1000000000000005 2.4500000000000006
    vertex 17.699999999999996 6.599999999999999 2.4500000000000006
    vertex 17.699999999999996 6.1000000000000005 2.4500000000000006
  endloop
endfacet
facet normal 0.0 -1.0 0.0
  outer loop
    vertex 17.699999999999996 25.5 3.6499999999999995
    vertex 10.199999999999998 25.5 2.4499999999999997
    vertex 17.699999999999996 25.5 2.4499999999999997
  endloop
endfacet
facet normal 0.0 -1.0 0.0
  outer loop
    vertex 10.199999999999998 25.5 2.4499999999999997
    vertex 8.999999999999998 25.5 2.1500000000000017
    vertex 10.199999999999998 25.5 2.1500000000000017
  endloop
endfacet
facet normal 0.0 -1.0 0.0
  outer loop
    vertex 8.999999999999998 25.5 2.1500000000000017
    vertex 10.199999999999998 25.5 2.4499999999999997
    vertex 8.999999999999998 25.5 3.6499999999999995
  endloop
endfacet
facet normal 0.0 -1.0 0.0
  outer loop
    vertex 8.999999999999998 25.5 3.6499999999999995
    vertex 10.199999999999998 25.5 2.4499999999999997
    vertex 17.699999999999996 25.5 3.6499999999999995
  endloop
endfacet
facet normal -2.030794621573992e-47 -1.174986034394965e-15 1.0
  outer loop
    vertex 60.59999999999999 25.999999999999996 2.1500000000000004
    vertex 17.699999999999996 27.19999999999999 2.1500000000000017
    vertex 17.699999999999996 25.999999999999996 2.1500000000000004
  endloop
endfacet
facet normal -2.030794621573992e-47 -1.174986034394965e-15 1.0
  outer loop
    vertex 17.699999999999996 27.19999999999999 2.1500000000000017
    vertex 60.59999999999999 25.999999999999996 2.1500000000000004
    vertex 60.59999999999999 27.19999999999999 2.1500000000000017
  endloop
endfacet
facet normal 0.0 0.0 1.0
  outer loop
    vertex 68.79999999999998 25.5 3.6499999999999995
    vertex 60.59999999999999 27.19999999999999 3.6499999999999995
    vertex 60.59999999999999 25.5 3.6499999999999995
  endloop
endfacet
facet normal 0.0 0.0 1.0
  outer loop
    vertex 60.59999999999999 27.19999999999999 3.6499999999999995
    vertex 68.79999999999998 25.5 3.6499999999999995
    vertex 68.79999999999998 27.19999999999999 3.6499999999999995
  endloop
endfacet
facet normal 1.0 0.0 0.0
  outer loop
    vertex 17.699999999999996 27.19999999999999 2.1500000000000017
    vertex 17.699999999999996 25.999999999999996 2.4499999999999997
    vertex 17.699999999999996 25.999999999999996 2.1500000000000004
  endloop
endfacet
facet normal 1.0 0.0 0.0
  outer loop
    vertex 17.699999999999996 25.999999999999996 2.4499999999999997
    vertex 17.699999999999996 25.5 3.6499999999999995
    vertex 17.699999999999996 25.5 2.4499999999999997
  endloop
endfacet
facet normal 1.0 0.0 0.0
  outer loop
    vertex 17.699999999999996 25.5 3.6499999999999995
    vertex 17.699999999999996 25.999999999999996 2.4499999999999997
    vertex 17.699999999999996 27.19999999999999 3.6499999999999995
  endloop
endfacet
facet normal 1.0 0.0 0.0
  outer loop
    vertex 17.699999999999996 27.19999999999999 3.6499999999999995
    vertex 17.699999999999996 25.999999999999996 2.4499999999999997
    vertex 17.699999999999996 27.19999999999999 2.1500000000000017
  endloop
endfacet
facet normal 1.0 -1.8350379501307714e-15 9.36243852107535e-17
  outer loop
    vertex 17.699999999999996 6.1000000000000005 2.150000000000003
    vertex 17.699999999999992 4.9 3.6500000000000004
    vertex 17.699999999999992 4.9 2.150000000000003
  endloop
endfacet
facet normal 1.0 -1.8350379501307714e-15 9.36243852107535e-17
  outer loop
    vertex 17.699999999999992 4.9 3.6500000000000004
    vertex 17.699999999999996 6.1000000000000005 2.150000000000003
    vertex 17.699999999999996 6.1000000000000005 2.4500000000000006
  endloop
endfacet
facet normal 1.0 -1.8350379501307714e-15 9.36243852107535e-17
  outer loop
    vertex 17.699999999999992 4.9 3.6500000000000004
    vertex 17.699999999999996 6.1000000000000005 2.4500000000000006
    vertex 17.699999999999996 6.599999999999999 3.6500000000000004
  endloop
endfacet
facet normal 1.0 -1.8350379501307714e-15 9.36243852107535e-17
  outer loop
    vertex 17.699999999999996 6.599999999999999 3.6500000000000004
    vertex 17.699999999999996 6.1000000000000005 2.4500000000000006
    vertex 17.699999999999996 6.599999999999999 2.4500000000000006
  endloop
endfacet
facet normal 0.0 0.0 1.0
  outer loop
    vertex 68.79999999999998 4.9 3.6500000000000004
    vertex 60.59999999999999 6.599999999999999 3.6500000000000004
    vertex 60.59999999999999 4.8999999999999995 3.6500000000000004
  endloop
endfacet
facet normal 0.0 0.0 1.0
  outer loop
    vertex 60.59999999999999 6.599999999999999 3.6500000000000004
    vertex 68.79999999999998 4.9 3.6500000000000004
    vertex 68.79999999999998 6.6000000000000005 3.6500000000000004
  endloop
endfacet
facet normal 0.0 3.7301143949046266e-17 1.0
  outer loop
    vertex 68.79999999999998 6.6000000000000005 2.1500000000000004
    vertex 67.6 25.5 2.1500000000000004
    vertex 67.6 6.6000000000000005 2.1500000000000004
  endloop
endfacet
facet normal 0.0 3.7301143949046266e-17 1.0
  outer loop
    vertex 67.6 25.5 2.1500000000000004
    vertex 68.79999999999998 6.6000000000000005 2.1500000000000004
    vertex 68.79999999999998 25.5 2.1500000000000004
  endloop
endfacet
facet normal -1.8408012465230682e-16 1.0 7.64724553451715e-18
  outer loop
    vertex 60.59999999999999 6.599999999999999 3.6500000000000004
    vertex 67.6 6.6000000000000005 2.4500000000000006
    vertex 60.59999999999999 6.599999999999999 2.4500000000000006
  endloop
endfacet
facet normal -1.8408012465230682e-16 1.0 7.64724553451715e-18
  outer loop
    vertex 67.6 6.6000000000000005 2.4500000000000006
    vertex 68.79999999999998 6.6000000000000005 2.1500000000000004
    vertex 67.6 6.6000000000000005 2.1500000000000004
  endloop
endfacet
facet normal -1.8408012465230682e-16 1.0 7.64724553451715e-18
  outer loop
    vertex 68.79999999999998 6.6000000000000005 2.1500000000000004
    vertex 67.6 6.6000000000000005 2.4500000000000006
    vertex 68.79999999999998 6.6000000000000005 3.6500000000000004
  endloop
endfacet
facet normal -1.8408012465230682e-16 1.0 7.64724553451715e-18
  outer loop
    vertex 68.79999999999998 6.6000000000000005 3.6500000000000004
    vertex 67.6 6.6000000000000005 2.4500000000000006
    vertex 60.59999999999999 6.599999999999999 3.6500000000000004
  endloop
endfacet
facet normal -1.0 5.0632561299203526e-17 1.4540483434871774e-16
  outer loop
    vertex 8.999999999999998 27.19999999999999 3.6499999999999995
    vertex 8.999999999999998 25.5 2.1500000000000017
    vertex 8.999999999999998 25.5 3.6499999999999995
  endloop
endfacet
facet normal -1.0 5.0632561299203526e-17 1.4540483434871774e-16
  outer loop
    vertex 8.999999999999998 6.6000000000000005 3.6500000000000004
    vertex 8.999999999999998 4.9 -1.2
    vertex 8.999999999999998 4.9 3.6500000000000004
  endloop
endfacet
facet normal -1.0 5.0632561299203526e-17 1.4540483434871774e-16
  outer loop
    vertex 8.999999999999998 4.9 -1.2
    vertex 8.999999999999998 6.6000000000000005 3.6500000000000004
    vertex 8.999999999999998 6.6000000000000005 2.1500000000000017
  endloop
endfacet
facet normal -1.0 5.0632561299203526e-17 1.4540483434871774e-16
  outer loop
    vertex 8.999999999999998 4.9 -1.2
    vertex 8.999999999999998 6.6000000000000005 2.1500000000000017
    vertex 8.999999999999998 27.19999999999999 -1.2
  endloop
endfacet
facet normal -1.0 5.0632561299203526e-17 1.4540483434871774e-16
  outer loop
    vertex 8.999999999999998 27.19999999999999 -1.2
    vertex 8.999999999999998 6.6000000000000005 2.1500000000000017
    vertex 8.999999999999998 25.5 2.1500000000000017
  endloop
endfacet
facet normal -1.0 5.0632561299203526e-17 1.4540483434871774e-16
  outer loop
    vertex 8.999999999999998 27.19999999999999 -1.2
    vertex 8.999999999999998 25.5 2.1500000000000017
    vertex 8.999999999999998 27.19999999999999 3.6499999999999995
  endloop
endfacet
facet normal 0.0 0.0 1.0
  outer loop
    vertex 67.6 6.1000000000000005 0.0
    vertex 10.199999999999998 25.999999999999996 0.0
    vertex 10.199999999999998 6.1000000000000005 0.0
  endloop
endfacet
facet normal 0.0 0.0 1.0
  outer loop
    vertex 10.199999999999998 25.999999999999996 0.0
    vertex 67.6 6.1000000000000005 0.0
    vertex 67.6 25.999999999999996 0.0
  endloop
endfacet
facet normal 0.0 0.0 1.0
  outer loop
    vertex 10.199999999999998 6.6000000000000005 2.1500000000000017
    vertex 8.999999999999998 25.5 2.1500000000000017
    vertex 8.999999999999998 6.6000000000000005 2.1500000000000017
  endloop
endfacet
facet normal 0.0 0.0 1.0
  outer loop
    vertex 8.999999999999998 25.5 2.1500000000000017
    vertex 10.199999999999998 6.6000000000000005 2.1500000000000017
    vertex 10.199999999999998 25.5 2.1500000000000017
  endloop
endfacet
facet normal 1.0 0.0 0.0
  outer loop
    vertex 10.199999999999998 25.999999999999996 0.0
    vertex 10.199999999999998 6.1000000000000005 2.1500000000000017
    vertex 10.199999999999998 6.1000000000000005 0.0
  endloop
endfacet
facet normal 1.0 0.0 0.0
  outer loop
    vertex 10.199999999999998 6.1000000000000005 2.1500000000000017
    vertex 10.199999999999998 25.999999999999996 0.0
    vertex 10.199999999999998 6.6000000000000005 2.1500000000000017
  endloop
endfacet
facet normal 1.0 0.0 0.0
  outer loop
    vertex 10.199999999999998 6.6000000000000005 2.1500000000000017
    vertex 10.199999999999998 25.999999999999996 0.0
    vertex 10.199999999999998 25.5 2.1500000000000017
  endloop
endfacet
facet normal 1.0 0.0 0.0
  outer loop
    vertex 10.199999999999998 25.5 2.1500000000000017
    vertex 10.199999999999998 25.999999999999996 0.0
    vertex 10.199999999999998 25.999999999999996 2.1500000000000017
  endloop
endfacet
facet normal 1.0 0.0 0.0
  outer loop
    vertex 10.199999999999998 25.999999999999996 2.1500000000000017
    vertex 10.199999999999998 25.5 2.4499999999999997
    vertex 10.199999999999998 25.5 2.1500000000000017
  endloop
endfacet
facet normal 1.0 0.0 0.0
  outer loop
    vertex 10.199999999999998 25.5 2.4499999999999997
    vertex 10.199999999999998 25.999999999999996 2.1500000000000017
    vertex 10.199999999999998 25.999999999999996 2.4499999999999997
  endloop
endfacet
facet normal 1.0 0.0 0.0
  outer loop
    vertex 10.199999999999998 6.6000000000000005 2.1500000000000017
    vertex 10.199999999999998 6.1000000000000005 2.4500000000000006
    vertex 10.199999999999998 6.1000000000000005 2.1500000000000017
  endloop
endfacet
facet normal 1.0 0.0 0.0
  outer loop
    vertex 10.199999999999998 6.1000000000000005 2.4500000000000006
    vertex 10.199999999999998 6.6000000000000005 2.1500000000000017
    vertex 10.199999999999998 6.6000000000000005 2.4500000000000006
  endloop
endfacet
endsolid LickSense0_2
