solid LickStick_Enclosure_1_0_0
facet normal 1.0 0.0 0.0
  outer loop
    vertex 71.93774027150916 40.488355575066656 -0.49999999999999717
    vertex 71.93774027150916 17.988355575066674 3.3500000000000068
    vertex 71.93774027150916 17.988355575066674 -0.49999999999999717
  endloop
endfacet
facet normal 1.0 0.0 0.0
  outer loop
    vertex 71.93774027150916 17.988355575066674 3.3500000000000068
    vertex 71.93774027150916 40.488355575066656 -0.49999999999999717
    vertex 71.93774027150916 19.188355575066673 3.3500000000000068
  endloop
endfacet
facet normal 1.0 0.0 0.0
  outer loop
    vertex 71.93774027150916 19.188355575066673 3.3500000000000068
    vertex 71.93774027150916 40.488355575066656 -0.49999999999999717
    vertex 71.93774027150916 19.188355575066673 4.850000000000007
  endloop
endfacet
facet normal 1.0 0.0 0.0
  outer loop
    vertex 71.93774027150916 19.188355575066673 4.850000000000007
    vertex 71.93774027150916 40.488355575066656 -0.49999999999999717
    vertex 71.93774027150916 39.288355575066674 3.3500000000000036
  endloop
endfacet
facet normal 1.0 0.0 0.0
  outer loop
    vertex 71.93774027150916 39.288355575066674 3.3500000000000036
    vertex 71.93774027150916 40.488355575066656 -0.49999999999999717
    vertex 71.93774027150916 40.488355575066656 3.3500000000000036
  endloop
endfacet
facet normal 1.0 0.0 0.0
  outer loop
    vertex 71.93774027150916 39.288355575066674 4.850000000000004
    vertex 71.93774027150916 19.188355575066673 4.850000000000007
    vertex 71.93774027150916 39.288355575066674 3.3500000000000036
  endloop
endfacet
facet normal -1.0 -1.0290568044593503e-17 -2.910839383113221e-16
  outer loop
    vertex 7.637740271509179 33.45130387489966 5.850000000000015
    vertex 7.637740271509181 25.0254072752337 3.3500000000000036
    vertex 7.6377402715091804 25.0254072752337 5.850000000000013
  endloop
endfacet
facet normal -1.0 -1.0290568044593503e-17 -2.910839383113221e-16
  outer loop
    vertex 7.637740271509181 17.98835557506668 3.3500000000000036
    vertex 7.637740271509181 40.488355575066656 -0.49999999999999717
    vertex 7.637740271509181 17.988355575066674 -0.49999999999999717
  endloop
endfacet
facet normal -1.0 -1.0290568044593503e-17 -2.910839383113221e-16
  outer loop
    vertex 7.637740271509181 40.488355575066656 -0.49999999999999717
    vertex 7.637740271509181 17.98835557506668 3.3500000000000036
    vertex 7.637740271509181 25.0254072752337 3.3500000000000036
  endloop
endfacet
facet normal -1.0 -1.0290568044593503e-17 -2.910839383113221e-16
  outer loop
    vertex 7.637740271509181 40.488355575066656 -0.49999999999999717
    vertex 7.637740271509181 25.0254072752337 3.3500000000000036
    vertex 7.637740271509181 33.45130387489966 3.350000000000008
  endloop
endfacet
facet normal -1.0 -1.0290568044593503e-17 -2.910839383113221e-16
  outer loop
    vertex 7.637740271509181 33.45130387489966 3.350000000000008
    vertex 7.637740271509181 25.0254072752337 3.3500000000000036
    vertex 7.637740271509179 33.45130387489966 5.850000000000015
  endloop
endfacet
facet normal -1.0 -1.0290568044593503e-17 -2.910839383113221e-16
  outer loop
    vertex 7.637740271509181 40.488355575066656 -0.49999999999999717
    vertex 7.637740271509181 33.45130387489966 3.350000000000008
    vertex 7.637740271509181 40.488355575066656 3.350000000000008
  endloop
endfacet
facet normal 0.0 1.0 0.0
  outer loop
    vertex 70.23774027150915 39.288355575066674 4.850000000000004
    vertex 70.73774027150915 39.288355575066674 3.650000000000009
    vertex 70.23774027150915 39.288355575066674 3.650000000000009
  endloop
endfacet
facet normal 0.0 1.0 0.0
  outer loop
    vertex 70.73774027150915 39.288355575066674 3.650000000000009
    vertex 71.93774027150916 39.288355575066674 3.3500000000000036
    vertex 70.73774027150915 39.288355575066674 3.3500000000000036
  endloop
endfacet
facet normal 0.0 1.0 0.0
  outer loop
    vertex 71.93774027150916 39.288355575066674 3.3500000000000036
    vertex 70.73774027150915 39.288355575066674 3.650000000000009
    vertex 71.93774027150916 39.288355575066674 4.850000000000004
  endloop
endfacet
facet normal 0.0 1.0 0.0
  outer loop
    vertex 71.93774027150916 39.288355575066674 4.850000000000004
    vertex 70.73774027150915 39.288355575066674 3.650000000000009
    vertex 70.23774027150915 39.288355575066674 4.850000000000004
  endloop
endfacet
facet normal -2.7646730221057864e-16 1.1331027234979836e-16 1.0
  outer loop
    vertex 71.93774027150916 19.188355575066673 4.850000000000007
    vertex 70.23774027150915 39.288355575066674 4.850000000000004
    vertex 70.23774027150915 19.188355575066673 4.850000000000005
  endloop
endfacet
facet normal -2.7646730221057864e-16 1.1331027234979836e-16 1.0
  outer loop
    vertex 70.23774027150915 39.288355575066674 4.850000000000004
    vertex 71.93774027150916 19.188355575066673 4.850000000000007
    vertex 71.93774027150916 39.288355575066674 4.850000000000004
  endloop
endfacet
facet normal 0.0 -1.0 0.0
  outer loop
    vertex 71.93774027150916 19.188355575066673 3.3500000000000068
    vertex 70.73774027150915 19.188355575066673 3.650000000000003
    vertex 70.73774027150915 19.188355575066673 3.350000000000005
  endloop
endfacet
facet normal 0.0 -1.0 0.0
  outer loop
    vertex 70.73774027150915 19.188355575066673 3.650000000000003
    vertex 71.93774027150916 19.188355575066673 3.3500000000000068
    vertex 71.93774027150916 19.188355575066673 4.850000000000007
  endloop
endfacet
facet normal 0.0 -1.0 0.0
  outer loop
    vertex 70.73774027150915 19.188355575066673 3.650000000000003
    vertex 71.93774027150916 19.188355575066673 4.850000000000007
    vertex 70.23774027150915 19.188355575066673 3.650000000000003
  endloop
endfacet
facet normal 0.0 -1.0 0.0
  outer loop
    vertex 70.23774027150915 19.188355575066673 3.650000000000003
    vertex 71.93774027150916 19.188355575066673 4.850000000000007
    vertex 70.23774027150915 19.188355575066673 4.850000000000005
  endloop
endfacet
facet normal -1.0 0.0 0.0
  outer loop
    vertex 70.73774027150915 39.288355575066674 3.650000000000009
    vertex 70.73774027150915 19.188355575066673 3.350000000000005
    vertex 70.73774027150915 19.188355575066673 3.650000000000003
  endloop
endfacet
facet normal -1.0 0.0 0.0
  outer loop
    vertex 70.73774027150915 19.188355575066673 3.350000000000005
    vertex 70.73774027150915 39.288355575066674 3.650000000000009
    vertex 70.73774027150915 19.188355575066673 0.7000000000000027
  endloop
endfacet
facet normal -1.0 0.0 0.0
  outer loop
    vertex 70.73774027150915 19.188355575066673 0.7000000000000027
    vertex 70.73774027150915 39.288355575066674 3.650000000000009
    vertex 70.73774027150915 39.288355575066674 0.7000000000000027
  endloop
endfacet
facet normal -1.0 0.0 0.0
  outer loop
    vertex 70.73774027150915 39.288355575066674 0.7000000000000027
    vertex 70.73774027150915 39.288355575066674 3.650000000000009
    vertex 70.73774027150915 39.288355575066674 3.3500000000000036
  endloop
endfacet
facet normal -1.0 0.0 0.0
  outer loop
    vertex 70.23774027150915 39.288355575066674 4.850000000000004
    vertex 70.23774027150915 19.188355575066673 3.650000000000003
    vertex 70.23774027150915 19.188355575066673 4.850000000000005
  endloop
endfacet
facet normal -1.0 0.0 0.0
  outer loop
    vertex 70.23774027150915 19.188355575066673 3.650000000000003
    vertex 70.23774027150915 39.288355575066674 4.850000000000004
    vertex 70.23774027150915 39.288355575066674 3.650000000000009
  endloop
endfacet
facet normal -2.250627076299445e-30 2.1546119969545e-16 -1.0
  outer loop
    vertex 70.73774027150915 39.288355575066674 3.650000000000009
    vertex 70.23774027150915 19.188355575066673 3.650000000000003
    vertex 70.23774027150915 39.288355575066674 3.650000000000009
  endloop
endfacet
facet normal -2.250627076299445e-30 2.1546119969545e-16 -1.0
  outer loop
    vertex 70.23774027150915 19.188355575066673 3.650000000000003
    vertex 70.73774027150915 39.288355575066674 3.650000000000009
    vertex 70.73774027150915 19.188355575066673 3.650000000000003
  endloop
endfacet
facet normal 2.9374650859873955e-16 -7.049916206369742e-17 1.0
  outer loop
    vertex 7.6377402715091804 25.0254072752337 5.850000000000013
    vertex 9.337740271509178 33.45130387489966 5.850000000000015
    vertex 7.637740271509179 33.45130387489966 5.850000000000015
  endloop
endfacet
facet normal 2.9374650859873955e-16 -7.049916206369742e-17 1.0
  outer loop
    vertex 9.337740271509178 33.45130387489966 5.850000000000015
    vertex 7.6377402715091804 25.0254072752337 5.850000000000013
    vertex 9.33774027150918 25.0254072752337 5.850000000000012
  endloop
endfacet
facet normal 1.0 7.014841996387806e-17 -1.8146718674464936e-32
  outer loop
    vertex 9.33774027150918 33.45130387489966 3.8500000000000054
    vertex 9.33774027150918 25.0254072752337 5.850000000000012
    vertex 9.337740271509182 25.0254072752337 3.8500000000000028
  endloop
endfacet
facet normal 1.0 7.014841996387806e-17 -1.8146718674464936e-32
  outer loop
    vertex 9.33774027150918 25.0254072752337 5.850000000000012
    vertex 9.33774027150918 33.45130387489966 3.8500000000000054
    vertex 9.337740271509178 33.45130387489966 5.850000000000015
  endloop
endfacet
facet normal 8.345370646483545e-32 1.0522262994581708e-16 -1.0
  outer loop
    vertex 9.33774027150918 33.45130387489966 3.8500000000000054
    vertex 8.837740271509182 25.0254072752337 3.8500000000000028
    vertex 8.83774027150918 33.45130387489966 3.8500000000000054
  endloop
endfacet
facet normal 8.345370646483545e-32 1.0522262994581708e-16 -1.0
  outer loop
    vertex 8.837740271509182 25.0254072752337 3.8500000000000028
    vertex 9.33774027150918 33.45130387489966 3.8500000000000054
    vertex 9.337740271509182 25.0254072752337 3.8500000000000028
  endloop
endfacet
facet normal 1.0 -2.003521770418585e-14 -3.1066148412011868e-15
  outer loop
    vertex 28.687740271509174 19.0081731571785 -0.4999999999999975
    vertex 28.687740271509156 17.988355575066674 1.1000000000000039
    vertex 28.687740271509156 17.988355575066674 -0.4999999999999968
  endloop
endfacet
facet normal 1.0 -2.003521770418585e-14 -3.1066148412011868e-15
  outer loop
    vertex 28.687740271509156 17.988355575066674 1.1000000000000039
    vertex 28.687740271509174 19.0081731571785 -0.4999999999999975
    vertex 28.687740271509174 18.402105105251394 0.61617541113175
  endloop
endfacet
facet normal 1.0 -2.003521770418585e-14 -3.1066148412011868e-15
  outer loop
    vertex 28.687740271509174 18.402105105251394 0.61617541113175
    vertex 28.687740271509174 19.0081731571785 -0.4999999999999975
    vertex 28.687740271509174 18.74427706640558 0.07933907152580656
  endloop
endfacet
facet normal -1.0 0.0 0.0
  outer loop
    vertex 38.68774027150916 18.402105105251394 0.61617541113175
    vertex 38.68774027150916 17.988355575066674 -0.4999999999999968
    vertex 38.68774027150916 17.988355575066674 1.1000000000000039
  endloop
endfacet
facet normal -1.0 0.0 0.0
  outer loop
    vertex 38.68774027150916 17.988355575066674 -0.4999999999999968
    vertex 38.68774027150916 18.402105105251394 0.61617541113175
    vertex 38.68774027150916 19.0081731571785 -0.4999999999999975
  endloop
endfacet
facet normal -1.0 0.0 0.0
  outer loop
    vertex 38.68774027150916 19.0081731571785 -0.4999999999999975
    vertex 38.68774027150916 18.402105105251394 0.61617541113175
    vertex 38.68774027150916 18.74427706640558 0.07933907152580656
  endloop
endfacet
facet normal -1.0 6.496901431815392e-16 3.828496485894745e-15
  outer loop
    vertex 38.687740271509156 39.74523551353303 0.07865370259706074
    vertex 38.687740271509156 40.488355575066656 -0.4999999999999968
    vertex 38.687740271509156 39.48835557506666 -0.4999999999999975
  endloop
endfacet
facet normal -1.0 6.496901431815392e-16 3.828496485894745e-15
  outer loop
    vertex 38.687740271509156 40.488355575066656 -0.4999999999999968
    vertex 38.687740271509156 39.74523551353303 0.07865370259706074
    vertex 38.68774027150916 40.08078278172311 0.6155293317011832
  endloop
endfacet
facet normal -1.0 6.496901431815392e-16 3.828496485894745e-15
  outer loop
    vertex 38.687740271509156 40.488355575066656 -0.4999999999999968
    vertex 38.68774027150916 40.08078278172311 0.6155293317011832
    vertex 38.68774027150916 40.488355575066656 1.1000000000000039
  endloop
endfacet
facet normal 1.0 1.449447379546131e-14 -3.609253578540619e-15
  outer loop
    vertex 28.687740271509156 40.488355575066656 -0.4999999999999968
    vertex 28.687740271509167 39.74523551353309 0.07865370259703396
    vertex 28.687740271509167 39.48835557506672 -0.5000000000000246
  endloop
endfacet
facet normal 1.0 1.449447379546131e-14 -3.609253578540619e-15
  outer loop
    vertex 28.687740271509167 39.74523551353309 0.07865370259703396
    vertex 28.687740271509156 40.488355575066656 -0.4999999999999968
    vertex 28.687740271509174 40.080782781723165 0.615529331701155
  endloop
endfacet
facet normal 1.0 1.449447379546131e-14 -3.609253578540619e-15
  outer loop
    vertex 28.687740271509174 40.080782781723165 0.615529331701155
    vertex 28.687740271509156 40.488355575066656 -0.4999999999999968
    vertex 28.687740271509156 40.488355575066656 1.1000000000000039
  endloop
endfacet
facet normal 4.604298505368671e-16 -1.0 5.840442564206342e-16
  outer loop
    vertex 9.33774027150918 25.0254072752337 5.850000000000012
    vertex 8.837740271509182 25.0254072752337 3.8500000000000028
    vertex 9.337740271509182 25.0254072752337 3.8500000000000028
  endloop
endfacet
facet normal 4.604298505368671e-16 -1.0 5.840442564206342e-16
  outer loop
    vertex 8.837740271509182 25.0254072752337 3.8500000000000028
    vertex 7.637740271509181 25.0254072752337 3.3500000000000036
    vertex 8.837740271509182 25.0254072752337 3.3500000000000036
  endloop
endfacet
facet normal 4.604298505368671e-16 -1.0 5.840442564206342e-16
  outer loop
    vertex 7.637740271509181 25.0254072752337 3.3500000000000036
    vertex 8.837740271509182 25.0254072752337 3.8500000000000028
    vertex 7.6377402715091804 25.0254072752337 5.850000000000013
  endloop
endfacet
facet normal 4.604298505368671e-16 -1.0 5.840442564206342e-16
  outer loop
    vertex 7.6377402715091804 25.0254072752337 5.850000000000013
    vertex 8.837740271509182 25.0254072752337 3.8500000000000028
    vertex 9.33774027150918 25.0254072752337 5.850000000000012
  endloop
endfacet
facet normal 0.0 1.0 0.0
  outer loop
    vertex 7.637740271509179 33.45130387489966 5.850000000000015
    vertex 8.83774027150918 33.45130387489966 3.350000000000008
    vertex 7.637740271509181 33.45130387489966 3.350000000000008
  endloop
endfacet
facet normal 0.0 1.0 0.0
  outer loop
    vertex 8.83774027150918 33.45130387489966 3.350000000000008
    vertex 7.637740271509179 33.45130387489966 5.850000000000015
    vertex 8.83774027150918 33.45130387489966 3.8500000000000054
  endloop
endfacet
facet normal 0.0 1.0 0.0
  outer loop
    vertex 8.83774027150918 33.45130387489966 3.8500000000000054
    vertex 7.637740271509179 33.45130387489966 5.850000000000015
    vertex 9.33774027150918 33.45130387489966 3.8500000000000054
  endloop
endfacet
facet normal 0.0 1.0 0.0
  outer loop
    vertex 9.33774027150918 33.45130387489966 3.8500000000000054
    vertex 7.637740271509179 33.45130387489966 5.850000000000015
    vertex 9.337740271509178 33.45130387489966 5.850000000000015
  endloop
endfacet
facet normal 0.0 -0.9100347196391564 -0.4145320362182902
  outer loop
    vertex 38.68774027150916 18.74427706640558 0.07933907152580656
    vertex 28.687740271509174 19.0081731571785 -0.4999999999999975
    vertex 38.68774027150916 19.0081731571785 -0.4999999999999975
  endloop
endfacet
facet normal 0.0 -0.9100347196391564 -0.4145320362182902
  outer loop
    vertex 28.687740271509174 19.0081731571785 -0.4999999999999975
    vertex 38.68774027150916 18.74427706640558 0.07933907152580656
    vertex 28.687740271509174 18.74427706640558 0.07933907152580656
  endloop
endfacet
facet normal -2.6823468404362487e-31 -0.8432707749517755 -0.5374889767355532
  outer loop
    vertex 38.68774027150916 18.402105105251394 0.61617541113175
    vertex 28.687740271509174 18.74427706640558 0.07933907152580656
    vertex 38.68774027150916 18.74427706640558 0.07933907152580656
  endloop
endfacet
facet normal -2.6823468404362487e-31 -0.8432707749517755 -0.5374889767355532
  outer loop
    vertex 28.687740271509174 18.74427706640558 0.07933907152580656
    vertex 38.68774027150916 18.402105105251394 0.61617541113175
    vertex 28.687740271509174 18.402105105251394 0.61617541113175
  endloop
endfacet
facet normal -6.963307776573026e-19 -0.7599991019518855 -0.6499241225191811
  outer loop
    vertex 38.68774027150916 17.988355575066674 1.1000000000000039
    vertex 28.687740271509174 18.402105105251394 0.61617541113175
    vertex 38.68774027150916 18.402105105251394 0.61617541113175
  endloop
endfacet
facet normal -6.963307776573026e-19 -0.7599991019518855 -0.6499241225191811
  outer loop
    vertex 28.687740271509174 18.402105105251394 0.61617541113175
    vertex 38.68774027150916 17.988355575066674 1.1000000000000039
    vertex 28.687740271509156 17.988355575066674 1.1000000000000039
  endloop
endfacet
facet normal 3.066631811006409e-15 0.7652243513887478 -0.6437636927022758
  outer loop
    vertex 28.687740271509156 40.488355575066656 1.1000000000000039
    vertex 38.68774027150916 40.08078278172311 0.6155293317011832
    vertex 28.687740271509174 40.080782781723165 0.615529331701155
  endloop
endfacet
facet normal 3.066631811006409e-15 0.7652243513887478 -0.6437636927022758
  outer loop
    vertex 38.68774027150916 40.08078278172311 0.6155293317011832
    vertex 28.687740271509156 40.488355575066656 1.1000000000000039
    vertex 38.68774027150916 40.488355575066656 1.1000000000000039
  endloop
endfacet
facet normal 6.240648338077961e-15 0.8479983040050866 -0.5299989400031824
  outer loop
    vertex 28.687740271509174 40.080782781723165 0.615529331701155
    vertex 38.687740271509156 39.74523551353303 0.07865370259706074
    vertex 28.687740271509167 39.74523551353309 0.07865370259703396
  endloop
endfacet
facet normal 6.240648338077961e-15 0.8479983040050866 -0.5299989400031824
  outer loop
    vertex 38.687740271509156 39.74523551353303 0.07865370259706074
    vertex 28.687740271509174 40.080782781723165 0.615529331701155
    vertex 38.68774027150916 40.08078278172311 0.6155293317011832
  endloop
endfacet
facet normal 6.248566386991807e-15 0.9139870238241034 -0.40574341680569287
  outer loop
    vertex 28.687740271509167 39.74523551353309 0.07865370259703396
    vertex 38.687740271509156 39.48835557506666 -0.4999999999999975
    vertex 28.687740271509167 39.48835557506672 -0.5000000000000246
  endloop
endfacet
facet normal 6.248566386991807e-15 0.9139870238241034 -0.40574341680569287
  outer loop
    vertex 38.687740271509156 39.48835557506666 -0.4999999999999975
    vertex 28.687740271509167 39.74523551353309 0.07865370259703396
    vertex 38.687740271509156 39.74523551353303 0.07865370259706074
  endloop
endfacet
facet normal 1.7395386696695697e-17 1.0 -1.3348735903725089e-15
  outer loop
    vertex 8.837740271509182 19.188355575066677 3.3500000000000036
    vertex 23.537740271509183 19.18835557506667 0.7000000000000027
    vertex 8.837740271509182 19.188355575066673 0.7000000000000027
  endloop
endfacet
facet normal 1.7395386696695697e-17 1.0 -1.3348735903725089e-15
  outer loop
    vertex 23.537740271509183 19.18835557506667 0.7000000000000027
    vertex 8.837740271509182 19.188355575066677 3.3500000000000036
    vertex 44.537740271509165 19.18835557506667 0.7000000000000027
  endloop
endfacet
facet normal 1.7395386696695697e-17 1.0 -1.3348735903725089e-15
  outer loop
    vertex 44.537740271509165 19.18835557506667 0.7000000000000027
    vertex 8.837740271509182 19.188355575066677 3.3500000000000036
    vertex 70.73774027150915 19.188355575066673 0.7000000000000027
  endloop
endfacet
facet normal 1.7395386696695697e-17 1.0 -1.3348735903725089e-15
  outer loop
    vertex 70.73774027150915 19.188355575066673 0.7000000000000027
    vertex 8.837740271509182 19.188355575066677 3.3500000000000036
    vertex 70.73774027150915 19.188355575066673 3.350000000000005
  endloop
endfacet
facet normal -5.554105718600071e-17 -1.0 1.0151088241927628e-15
  outer loop
    vertex 71.93774027150916 17.988355575066674 3.3500000000000068
    vertex 54.53774027150916 17.988355575066674 -0.49999999999999717
    vertex 71.93774027150916 17.988355575066674 -0.49999999999999717
  endloop
endfacet
facet normal -5.554105718600071e-17 -1.0 1.0151088241927628e-15
  outer loop
    vertex 54.53774027150916 17.988355575066674 -0.49999999999999717
    vertex 71.93774027150916 17.988355575066674 3.3500000000000068
    vertex 38.68774027150916 17.988355575066674 -0.4999999999999968
  endloop
endfacet
facet normal -5.554105718600071e-17 -1.0 1.0151088241927628e-15
  outer loop
    vertex 38.68774027150916 17.988355575066674 -0.4999999999999968
    vertex 71.93774027150916 17.988355575066674 3.3500000000000068
    vertex 38.68774027150916 17.988355575066674 1.1000000000000039
  endloop
endfacet
facet normal -5.554105718600071e-17 -1.0 1.0151088241927628e-15
  outer loop
    vertex 38.68774027150916 17.988355575066674 1.1000000000000039
    vertex 71.93774027150916 17.988355575066674 3.3500000000000068
    vertex 28.687740271509156 17.988355575066674 1.1000000000000039
  endloop
endfacet
facet normal -5.554105718600071e-17 -1.0 1.0151088241927628e-15
  outer loop
    vertex 28.687740271509156 17.988355575066674 1.1000000000000039
    vertex 71.93774027150916 17.988355575066674 3.3500000000000068
    vertex 7.637740271509181 17.98835557506668 3.3500000000000036
  endloop
endfacet
facet normal -5.554105718600071e-17 -1.0 1.0151088241927628e-15
  outer loop
    vertex 28.687740271509156 17.988355575066674 -0.4999999999999968
    vertex 7.637740271509181 17.98835557506668 3.3500000000000036
    vertex 7.637740271509181 17.988355575066674 -0.49999999999999717
  endloop
endfacet
facet normal -5.554105718600071e-17 -1.0 1.0151088241927628e-15
  outer loop
    vertex 7.637740271509181 17.98835557506668 3.3500000000000036
    vertex 28.687740271509156 17.988355575066674 -0.4999999999999968
    vertex 28.687740271509156 17.988355575066674 1.1000000000000039
  endloop
endfacet
facet normal 6.743609112212554e-17 -5.463175378591288e-18 1.0
  outer loop
    vertex 8.83774027150918 33.45130387489966 3.350000000000008
    vertex 7.637740271509181 40.488355575066656 3.350000000000008
    vertex 7.637740271509181 33.45130387489966 3.350000000000008
  endloop
endfacet
facet normal 6.743609112212554e-17 -5.463175378591288e-18 1.0
  outer loop
    vertex 7.637740271509181 40.488355575066656 3.350000000000008
    vertex 8.83774027150918 33.45130387489966 3.350000000000008
    vertex 8.83774027150918 39.288355575066674 3.350000000000008
  endloop
endfacet
facet normal 6.743609112212554e-17 -5.463175378591288e-18 1.0
  outer loop
    vertex 7.637740271509181 40.488355575066656 3.350000000000008
    vertex 8.83774027150918 39.288355575066674 3.350000000000008
    vertex 71.93774027150916 40.488355575066656 3.3500000000000036
  endloop
endfacet
facet normal 6.743609112212554e-17 -5.463175378591288e-18 1.0
  outer loop
    vertex 71.93774027150916 40.488355575066656 3.3500000000000036
    vertex 8.83774027150918 39.288355575066674 3.350000000000008
    vertex 70.73774027150915 39.288355575066674 3.3500000000000036
  endloop
endfacet
facet normal 6.743609112212554e-17 -5.463175378591288e-18 1.0
  outer loop
    vertex 71.93774027150916 40.488355575066656 3.3500000000000036
    vertex 70.73774027150915 39.288355575066674 3.3500000000000036
    vertex 71.93774027150916 39.288355575066674 3.3500000000000036
  endloop
endfacet
facet normal -3.6697658247969086e-17 1.2131854423010956e-17 1.0
  outer loop
    vertex 7.637740271509181 17.98835557506668 3.3500000000000036
    vertex 8.837740271509182 19.188355575066677 3.3500000000000036
    vertex 7.637740271509181 25.0254072752337 3.3500000000000036
  endloop
endfacet
facet normal -3.6697658247969086e-17 1.2131854423010956e-17 1.0
  outer loop
    vertex 8.837740271509182 19.188355575066677 3.3500000000000036
    vertex 7.637740271509181 17.98835557506668 3.3500000000000036
    vertex 71.93774027150916 17.988355575066674 3.3500000000000068
  endloop
endfacet
facet normal -3.6697658247969086e-17 1.2131854423010956e-17 1.0
  outer loop
    vertex 8.837740271509182 19.188355575066677 3.3500000000000036
    vertex 71.93774027150916 17.988355575066674 3.3500000000000068
    vertex 70.73774027150915 19.188355575066673 3.350000000000005
  endloop
endfacet
facet normal -3.6697658247969086e-17 1.2131854423010956e-17 1.0
  outer loop
    vertex 70.73774027150915 19.188355575066673 3.350000000000005
    vertex 71.93774027150916 17.988355575066674 3.3500000000000068
    vertex 71.93774027150916 19.188355575066673 3.3500000000000068
  endloop
endfacet
facet normal -3.6697658247969086e-17 1.2131854423010956e-17 1.0
  outer loop
    vertex 8.837740271509182 25.0254072752337 3.3500000000000036
    vertex 7.637740271509181 25.0254072752337 3.3500000000000036
    vertex 8.837740271509182 19.188355575066677 3.3500000000000036
  endloop
endfacet
facet normal 0.0 1.0 0.0
  outer loop
    vertex 7.637740271509181 40.488355575066656 3.350000000000008
    vertex 28.687740271509156 40.488355575066656 -0.4999999999999968
    vertex 7.637740271509181 40.488355575066656 -0.49999999999999717
  endloop
endfacet
facet normal 0.0 1.0 0.0
  outer loop
    vertex 28.687740271509156 40.488355575066656 -0.4999999999999968
    vertex 7.637740271509181 40.488355575066656 3.350000000000008
    vertex 28.687740271509156 40.488355575066656 1.1000000000000039
  endloop
endfacet
facet normal 0.0 1.0 0.0
  outer loop
    vertex 28.687740271509156 40.488355575066656 1.1000000000000039
    vertex 7.637740271509181 40.488355575066656 3.350000000000008
    vertex 38.68774027150916 40.488355575066656 1.1000000000000039
  endloop
endfacet
facet normal 0.0 1.0 0.0
  outer loop
    vertex 38.68774027150916 40.488355575066656 1.1000000000000039
    vertex 7.637740271509181 40.488355575066656 3.350000000000008
    vertex 71.93774027150916 40.488355575066656 3.3500000000000036
  endloop
endfacet
facet normal 0.0 1.0 0.0
  outer loop
    vertex 38.687740271509156 40.488355575066656 -0.4999999999999968
    vertex 71.93774027150916 40.488355575066656 -0.49999999999999717
    vertex 54.53774027150917 40.488355575066656 -0.49999999999999717
  endloop
endfacet
facet normal 0.0 1.0 0.0
  outer loop
    vertex 71.93774027150916 40.488355575066656 -0.49999999999999717
    vertex 38.687740271509156 40.488355575066656 -0.4999999999999968
    vertex 71.93774027150916 40.488355575066656 3.3500000000000036
  endloop
endfacet
facet normal 0.0 1.0 0.0
  outer loop
    vertex 71.93774027150916 40.488355575066656 3.3500000000000036
    vertex 38.687740271509156 40.488355575066656 -0.4999999999999968
    vertex 38.68774027150916 40.488355575066656 1.1000000000000039
  endloop
endfacet
facet normal 0.0 0.0 1.0
  outer loop
    vertex 23.537740271509183 19.18835557506667 0.7000000000000027
    vertex 8.837740271509182 39.288355575066674 0.7000000000000027
    vertex 8.837740271509182 19.188355575066673 0.7000000000000027
  endloop
endfacet
facet normal 0.0 0.0 1.0
  outer loop
    vertex 8.837740271509182 39.288355575066674 0.7000000000000027
    vertex 23.537740271509183 19.18835557506667 0.7000000000000027
    vertex 70.73774027150915 39.288355575066674 0.7000000000000027
  endloop
endfacet
facet normal 0.0 0.0 1.0
  outer loop
    vertex 70.73774027150915 39.288355575066674 0.7000000000000027
    vertex 23.537740271509183 19.18835557506667 0.7000000000000027
    vertex 44.537740271509165 19.18835557506667 0.7000000000000027
  endloop
endfacet
facet normal 0.0 0.0 1.0
  outer loop
    vertex 70.73774027150915 39.288355575066674 0.7000000000000027
    vertex 44.537740271509165 19.18835557506667 0.7000000000000027
    vertex 70.73774027150915 19.188355575066673 0.7000000000000027
  endloop
endfacet
facet normal 1.0 2.501100967874834e-17 5.84427226888561e-16
  outer loop
    vertex 8.837740271509182 39.288355575066674 0.7000000000000027
    vertex 8.837740271509182 19.188355575066677 3.3500000000000036
    vertex 8.837740271509182 19.188355575066673 0.7000000000000027
  endloop
endfacet
facet normal 1.0 2.501100967874834e-17 5.84427226888561e-16
  outer loop
    vertex 8.837740271509182 19.188355575066677 3.3500000000000036
    vertex 8.837740271509182 39.288355575066674 0.7000000000000027
    vertex 8.837740271509182 25.0254072752337 3.3500000000000036
  endloop
endfacet
facet normal 1.0 2.501100967874834e-17 5.84427226888561e-16
  outer loop
    vertex 8.837740271509182 25.0254072752337 3.3500000000000036
    vertex 8.837740271509182 39.288355575066674 0.7000000000000027
    vertex 8.837740271509182 25.0254072752337 3.8500000000000028
  endloop
endfacet
facet normal 1.0 2.501100967874834e-17 5.84427226888561e-16
  outer loop
    vertex 8.837740271509182 25.0254072752337 3.8500000000000028
    vertex 8.837740271509182 39.288355575066674 0.7000000000000027
    vertex 8.83774027150918 33.45130387489966 3.350000000000008
  endloop
endfacet
facet normal 1.0 2.501100967874834e-17 5.84427226888561e-16
  outer loop
    vertex 8.83774027150918 33.45130387489966 3.350000000000008
    vertex 8.837740271509182 39.288355575066674 0.7000000000000027
    vertex 8.83774027150918 39.288355575066674 3.350000000000008
  endloop
endfacet
facet normal 1.0 2.501100967874834e-17 5.84427226888561e-16
  outer loop
    vertex 8.83774027150918 33.45130387489966 3.8500000000000054
    vertex 8.837740271509182 25.0254072752337 3.8500000000000028
    vertex 8.83774027150918 33.45130387489966 3.350000000000008
  endloop
endfacet
facet normal 0.0 -1.0 0.0
  outer loop
    vertex 70.73774027150915 39.288355575066674 3.3500000000000036
    vertex 8.837740271509182 39.288355575066674 0.7000000000000027
    vertex 70.73774027150915 39.288355575066674 0.7000000000000027
  endloop
endfacet
facet normal 0.0 -1.0 0.0
  outer loop
    vertex 8.837740271509182 39.288355575066674 0.7000000000000027
    vertex 70.73774027150915 39.288355575066674 3.3500000000000036
    vertex 8.83774027150918 39.288355575066674 3.350000000000008
  endloop
endfacet
facet normal 5.234004181106283e-17 -1.6505888977143977e-16 -1.0
  outer loop
    vertex 54.53774027150917 40.488355575066656 -0.49999999999999717
    vertex 38.687740271509156 39.48835557506666 -0.4999999999999975
    vertex 38.687740271509156 40.488355575066656 -0.4999999999999968
  endloop
endfacet
facet normal 5.234004181106283e-17 -1.6505888977143977e-16 -1.0
  outer loop
    vertex 38.687740271509156 39.48835557506666 -0.4999999999999975
    vertex 54.53774027150917 40.488355575066656 -0.49999999999999717
    vertex 38.68774027150916 19.0081731571785 -0.4999999999999975
  endloop
endfacet
facet normal 5.234004181106283e-17 -1.6505888977143977e-16 -1.0
  outer loop
    vertex 38.68774027150916 19.0081731571785 -0.4999999999999975
    vertex 54.53774027150917 40.488355575066656 -0.49999999999999717
    vertex 38.68774027150916 17.988355575066674 -0.4999999999999968
  endloop
endfacet
facet normal 5.234004181106283e-17 -1.6505888977143977e-16 -1.0
  outer loop
    vertex 38.68774027150916 17.988355575066674 -0.4999999999999968
    vertex 54.53774027150917 40.488355575066656 -0.49999999999999717
    vertex 54.53774027150916 17.988355575066674 -0.49999999999999717
  endloop
endfacet
facet normal 5.234004181106283e-17 -1.6505888977143977e-16 -1.0
  outer loop
    vertex 54.53774027150916 17.988355575066674 -0.49999999999999717
    vertex 54.53774027150917 40.488355575066656 -0.49999999999999717
    vertex 71.93774027150916 17.988355575066674 -0.49999999999999717
  endloop
endfacet
facet normal 5.234004181106283e-17 -1.6505888977143977e-16 -1.0
  outer loop
    vertex 71.93774027150916 17.988355575066674 -0.49999999999999717
    vertex 54.53774027150917 40.488355575066656 -0.49999999999999717
    vertex 71.93774027150916 40.488355575066656 -0.49999999999999717
  endloop
endfacet
facet normal 5.234004181106283e-17 -1.6505888977143977e-16 -1.0
  outer loop
    vertex 28.687740271509156 40.488355575066656 -0.4999999999999968
    vertex 7.637740271509181 17.988355575066674 -0.49999999999999717
    vertex 7.637740271509181 40.488355575066656 -0.49999999999999717
  endloop
endfacet
facet normal 5.234004181106283e-17 -1.6505888977143977e-16 -1.0
  outer loop
    vertex 7.637740271509181 17.988355575066674 -0.49999999999999717
    vertex 28.687740271509156 40.488355575066656 -0.4999999999999968
    vertex 28.687740271509156 17.988355575066674 -0.4999999999999968
  endloop
endfacet
facet normal 5.234004181106283e-17 -1.6505888977143977e-16 -1.0
  outer loop
    vertex 28.687740271509156 17.988355575066674 -0.4999999999999968
    vertex 28.687740271509156 40.488355575066656 -0.4999999999999968
    vertex 28.687740271509167 39.48835557506672 -0.5000000000000246
  endloop
endfacet
facet normal 5.234004181106283e-17 -1.6505888977143977e-16 -1.0
  outer loop
    vertex 28.687740271509156 17.988355575066674 -0.4999999999999968
    vertex 28.687740271509167 39.48835557506672 -0.5000000000000246
    vertex 28.687740271509174 19.0081731571785 -0.4999999999999975
  endloop
endfacet
facet normal 5.234004181106283e-17 -1.6505888977143977e-16 -1.0
  outer loop
    vertex 28.687740271509174 19.0081731571785 -0.4999999999999975
    vertex 28.687740271509167 39.48835557506672 -0.5000000000000246
    vertex 38.687740271509156 39.48835557506666 -0.4999999999999975
  endloop
endfacet
facet normal 5.234004181106283e-17 -1.6505888977143977e-16 -1.0
  outer loop
    vertex 28.687740271509174 19.0081731571785 -0.4999999999999975
    vertex 38.687740271509156 39.48835557506666 -0.4999999999999975
    vertex 38.68774027150916 19.0081731571785 -0.4999999999999975
  endloop
endfacet
endsolid LickStick_Enclosure_1_0_0
